<?xml version="1.0" standalone="no"?>
<!DOCTYPE svg PUBLIC "-//W3C//DTD SVG 20010904//EN"
 "http://www.w3.org/TR/2001/REC-SVG-20010904/DTD/svg10.dtd">
<svg version="1.0" xmlns="http://www.w3.org/2000/svg"
 width="262.000000pt" height="192.000000pt" viewBox="0 0 262.000000 192.000000"
 preserveAspectRatio="xMidYMid meet">

<g transform="translate(0.000000,192.000000) scale(0.100000,-0.100000)"
fill="#000000" stroke="none">
<path d="M1822 1666 c-139 -139 -252 -258 -252 -263 0 -4 40 -49 90 -98 l90
-90 22 23 23 23 -22 37 -22 37 137 137 137 138 -33 32 -32 33 90 90 90 91 -33
32 -33 32 -252 -254z"/>
<path d="M426 1848 c-14 -19 -16 -74 -16 -394 l0 -373 26 -20 c26 -20 38 -21
353 -21 l326 0 31 48 c29 46 30 50 29 157 -1 105 -2 110 -23 113 -22 3 -22 1
-22 -113 0 -115 0 -116 -22 -113 -22 3 -23 7 -24 113 -2 104 -3 110 -23 113
-20 3 -21 0 -21 -112 l0 -116 -25 0 -25 0 0 115 c0 108 -1 115 -20 115 -19 0
-20 -7 -20 -115 l0 -115 -25 0 -25 0 0 115 c0 108 -1 115 -20 115 -19 0 -20
-7 -20 -115 l0 -115 -25 0 -25 0 0 115 c0 108 -1 115 -20 115 -19 0 -20 -7
-20 -115 l0 -115 -25 0 -25 0 0 115 c0 108 -1 115 -20 115 -19 0 -20 -7 -20
-115 l0 -115 -78 0 c-47 0 -83 5 -90 12 -15 15 -16 164 -2 173 6 3 10 35 10
71 0 36 -4 64 -10 64 -14 0 -13 137 1 146 7 4 49 7 95 7 l83 0 3 46 c2 33 7
45 17 43 8 -2 26 0 41 3 22 5 29 14 36 48 l9 42 135 0 135 0 5 -45 5 -45 40 0
40 0 5 -45 5 -45 83 -2 c47 -1 89 -7 98 -13 20 -17 19 -123 -1 -140 -8 -7 -15
-27 -15 -44 l0 -32 60 58 60 57 0 164 c0 151 -2 166 -21 191 l-20 26 -484 0
-484 0 -15 -22z"/>
<path d="M2091 1746 c-65 -65 -73 -77 -61 -91 12 -14 22 -8 91 61 60 60 76 81
67 91 -6 7 -13 13 -17 13 -4 0 -40 -33 -80 -74z"/>
<path d="M2157 1682 c-68 -68 -76 -80 -65 -95 12 -16 21 -10 93 63 71 71 78
82 64 95 -13 13 -23 6 -92 -63z"/>
<path d="M2222 1617 c-52 -53 -71 -78 -66 -90 3 -9 9 -17 13 -17 3 0 41 35 84
78 61 61 75 80 65 90 -7 7 -15 12 -18 12 -3 0 -38 -33 -78 -73z"/>
<path d="M2285 1550 c-65 -65 -77 -82 -65 -90 8 -5 17 -10 20 -10 3 0 39 34
80 75 66 67 73 77 59 90 -13 13 -23 6 -94 -65z"/>
<path d="M1931 1456 l-124 -124 24 -41 23 -42 -111 -112 -112 -112 47 -47 47
-47 113 112 112 112 42 -24 41 -23 123 124 124 123 -113 113 -112 112 -124
-124z"/>
<path d="M2347 1492 c-73 -74 -77 -79 -60 -94 17 -15 23 -10 92 64 64 69 72
81 60 94 -13 12 -25 4 -92 -64z"/>
<path d="M2411 1426 c-65 -65 -73 -77 -61 -91 12 -14 22 -8 91 61 60 60 76 81
67 91 -6 7 -13 13 -17 13 -4 0 -40 -33 -80 -74z"/>
<path d="M2465 1350 l-89 -90 -33 32 -33 32 -138 -137 -137 -137 -39 26 -38
26 -24 -24 -24 -23 98 -98 97 -97 258 258 257 258 -33 32 -33 32 -89 -90z"/>
<path d="M1440 1387 c-19 -18 -73 -90 -119 -160 l-85 -128 103 -103 102 -102
-24 -22 -23 -22 -94 95 c-52 52 -97 95 -100 95 -3 0 -16 -17 -28 -36 l-24 -37
86 -86 c47 -48 86 -91 86 -97 0 -6 -9 -19 -20 -29 -20 -19 -22 -18 -106 66
-82 81 -86 83 -100 64 -36 -48 -36 -48 42 -126 41 -40 74 -79 74 -85 0 -6 -9
-19 -20 -29 -20 -18 -22 -18 -94 54 l-74 73 -26 -38 -26 -39 67 -67 67 -67
-24 -26 -24 -26 -61 61 c-33 33 -63 60 -67 60 -3 0 -15 -15 -27 -33 l-20 -32
57 -58 57 -59 -55 -49 c-30 -27 -89 -66 -129 -87 -72 -36 -79 -37 -181 -37
-100 0 -109 2 -174 34 -169 83 -278 267 -279 470 0 138 43 264 128 375 35 46
36 49 33 129 l-3 82 -63 -63 c-119 -119 -198 -246 -243 -392 -20 -62 -24 -96
-23 -195 0 -105 4 -131 29 -204 67 -197 218 -353 415 -427 67 -25 88 -28 195
-28 105 0 129 3 193 26 98 35 172 80 249 152 l64 59 57 -55 57 -56 38 26 38
25 -63 64 -62 63 22 22 22 22 68 -67 67 -67 39 26 38 26 -73 74 c-72 72 -72
74 -54 94 10 11 23 20 29 20 6 0 45 -34 85 -74 l74 -75 31 21 c17 12 33 23 35
25 3 2 -33 42 -79 88 l-84 84 24 26 24 26 92 -92 92 -92 34 23 c18 13 35 25
37 27 3 2 -39 48 -92 101 l-98 98 26 24 26 24 102 -101 102 -101 125 83 c130
87 152 105 178 143 15 23 13 26 -104 143 l-119 119 -92 -92 -93 -93 -80 80
-80 80 92 92 93 93 -115 115 c-63 63 -119 115 -125 115 -5 0 -26 -15 -45 -33z"/>
</g>
</svg>
