<?xml version="1.0" standalone="no"?>
<!DOCTYPE svg PUBLIC "-//W3C//DTD SVG 20010904//EN"
 "http://www.w3.org/TR/2001/REC-SVG-20010904/DTD/svg10.dtd">
<svg version="1.0" xmlns="http://www.w3.org/2000/svg"
 width="300.000000pt" height="300.000000pt" viewBox="0 0 300.000000 300.000000"
 preserveAspectRatio="xMidYMid meet">

<g transform="translate(0.000000,300.000000) scale(0.100000,-0.100000)"
fill="#000000" stroke="none">
<path d="M1104 2705 c-112 -24 -208 -87 -262 -173 -36 -55 -136 -287 -194
-447 -22 -60 -44 -114 -49 -120 -5 -5 -43 -10 -85 -11 -53 -2 -81 -7 -93 -18
-13 -12 -20 -13 -28 -5 -9 9 -28 8 -75 0 -43 -8 -81 -9 -122 -3 -53 9 -59 8
-64 -10 -3 -12 -10 -17 -22 -13 -11 4 -20 -1 -25 -12 -41 -104 -74 -208 -68
-214 18 -17 206 -161 222 -170 9 -5 67 -15 129 -23 104 -13 117 -17 158 -49
36 -28 57 -36 107 -41 l63 -7 11 -74 c12 -82 54 -183 100 -235 20 -23 35 -58
46 -105 28 -116 80 -210 161 -290 39 -39 99 -85 134 -103 61 -33 72 -48 52
-68 -7 -7 -10 -51 -8 -109 l3 -99 175 -53 c96 -29 186 -55 200 -57 22 -5 36 8
103 88 77 91 80 94 115 89 36 -4 39 -2 138 114 92 109 109 123 197 173 53 30
136 83 184 119 153 113 382 355 468 496 28 46 5 20 -86 -95 -162 -204 -369
-389 -555 -495 -43 -25 -80 -42 -82 -37 -1 4 19 62 45 129 46 116 50 123 106
166 70 54 129 110 227 213 76 80 205 242 198 249 -2 2 -34 -35 -70 -83 -89
-117 -185 -220 -287 -309 -122 -107 -124 -107 -89 -16 16 42 28 87 25 100 -4
19 6 29 62 64 81 51 218 149 290 207 29 24 59 45 67 46 15 2 41 34 73 91 19
33 5 25 -17 -11 -24 -38 -418 -328 -476 -350 -30 -11 -17 20 40 95 30 41 71
101 91 135 26 46 58 79 127 134 115 93 325 276 321 280 -2 2 -21 -8 -42 -22
-20 -14 -44 -26 -53 -26 -10 0 -11 -3 -3 -8 7 -4 -38 -48 -120 -117 -198 -167
-183 -159 -142 -68 53 115 53 115 156 150 52 18 83 31 70 30 -16 -1 -26 5 -32
21 -8 20 -5 22 29 23 30 1 25 3 -23 11 -33 5 -64 13 -69 18 -5 5 6 33 24 64
27 49 36 56 63 57 l32 1 -30 7 -30 6 86 88 c47 48 82 87 76 87 -5 0 -44 -35
-86 -77 -90 -91 -140 -173 -244 -400 -92 -199 -130 -269 -208 -373 l-61 -82
-31 30 c-18 17 -49 38 -69 46 l-37 16 60 82 c33 46 92 148 131 228 38 80 94
195 123 255 65 133 120 217 193 297 75 81 98 92 169 78 31 -5 58 -8 61 -6 8 8
-73 26 -117 26 -38 0 -42 2 -31 15 7 9 45 31 84 50 39 19 64 35 56 35 -23 0
-132 -54 -166 -83 -31 -26 -35 -27 -173 -27 -77 0 -209 5 -293 11 l-153 11
-124 76 c-71 43 -191 131 -280 205 -165 137 -223 172 -318 187 -72 12 -83 12
-159 -5z m258 -42 c50 -24 258 -184 258 -199 0 -2 -28 7 -62 20 -74 28 -157
38 -213 28 -26 -5 -56 -3 -85 6 -89 27 -199 -8 -254 -81 -25 -33 -123 -272
-170 -413 l-27 -81 -172 -35 c-105 -21 -171 -39 -170 -46 2 -6 -5 -13 -15 -15
-69 -19 -72 -18 -123 22 -27 22 -46 42 -42 44 18 10 89 17 101 9 7 -5 27 -6
45 -4 28 4 29 6 12 14 -17 7 -16 7 5 3 14 -3 89 7 168 22 120 23 146 25 163
14 12 -7 23 -10 26 -7 3 3 -6 11 -21 17 -20 10 -41 10 -88 1 -34 -6 -64 -9
-66 -7 -10 10 135 380 195 499 51 101 149 180 263 213 75 22 198 11 272 -24z
m-123 -149 c37 -8 40 -20 7 -28 -13 -3 -51 -25 -86 -48 -75 -50 -141 -145
-246 -350 -75 -149 -72 -144 -81 -135 -9 10 18 94 93 284 68 174 90 213 141
245 57 35 109 44 172 32z m318 -46 c52 -21 317 -173 366 -210 15 -11 -3 -12
-115 -8 -123 5 -136 7 -174 31 -58 38 -126 59 -187 58 -50 -2 -49 -2 18 -9 45
-5 91 -18 125 -35 90 -45 91 -48 16 -62 -85 -15 -154 -47 -234 -108 -64 -48
-174 -166 -238 -255 l-35 -49 -36 13 c-20 7 -39 18 -40 23 -2 6 31 80 74 164
94 183 147 247 238 284 62 25 64 34 4 13 -100 -34 -156 -103 -272 -335 l-66
-131 -77 24 c-42 13 -78 25 -80 27 -7 6 142 292 195 374 77 120 146 176 261
209 66 20 184 11 257 -18z m578 -253 c121 -8 274 -15 339 -15 l119 0 -60 -62
c-33 -35 -65 -73 -72 -85 -10 -21 -20 -23 -84 -24 -40 0 -65 -3 -57 -5 37 -13
90 -38 90 -43 0 -18 -63 -111 -74 -111 -8 0 -88 37 -178 83 l-163 82 60 6 c51
5 46 6 -35 6 -52 0 -85 -2 -74 -4 12 -2 100 -44 195 -92 96 -48 180 -90 188
-92 10 -4 1 -32 -37 -114 l-50 -110 -223 -3 c-199 -3 -553 12 -583 24 -6 3
-20 19 -31 37 -11 18 -37 40 -57 50 -21 10 -38 22 -38 26 0 15 142 161 192
197 28 21 74 46 102 56 28 9 42 17 31 17 -61 1 -196 -97 -286 -205 -29 -35
-58 -64 -65 -64 -13 0 -144 39 -157 47 -23 14 202 261 293 323 60 41 121 66
190 79 71 14 285 12 525 -4z m295 -204 c0 -18 -15 -19 -40 -5 l-25 13 33 1
c17 0 32 -4 32 -9z m-1606 -90 c4 -5 -2 -7 -11 -5 -10 3 -70 -6 -133 -20 -105
-22 -110 -24 -62 -25 31 -1 52 -5 52 -12 0 -8 -14 -9 -47 -3 -27 4 -70 7 -98
7 -64 -1 -57 1 110 36 155 32 181 35 189 22z m-669 -10 c3 -5 1 -12 -5 -16 -5
-3 -10 1 -10 9 0 18 6 21 15 7z m153 -39 c23 -19 42 -35 42 -36 0 -2 -15 0
-32 2 -18 3 -49 17 -68 32 -42 32 -60 43 -60 36 0 -3 20 -19 44 -36 41 -30 44
-34 34 -61 -5 -16 -12 -29 -15 -29 -3 0 -27 17 -53 38 -37 28 -48 42 -43 57
15 55 81 54 151 -3z m616 -69 c100 -77 126 -102 126 -122 0 -13 -23 -86 -51
-162 -51 -137 -52 -139 -82 -139 -33 0 -290 31 -295 36 -2 1 19 64 47 140 59
159 63 193 24 224 l-28 22 68 -7 c37 -4 67 -5 67 -1 0 3 -25 24 -56 48 -61 46
-58 56 17 57 32 1 55 -13 163 -96z m-754 26 c70 -58 121 -89 134 -82 6 3 8 3
4 -2 -4 -4 -4 -13 1 -19 5 -7 -6 -48 -27 -105 -38 -101 -56 -114 -22 -16 11
32 20 63 20 69 0 21 -18 -10 -35 -61 -9 -29 -21 -55 -26 -58 -13 -9 -12 -3 16
71 28 75 28 74 17 74 -5 0 -19 -29 -31 -65 -13 -36 -27 -65 -32 -65 -4 0 3 29
16 65 14 36 25 71 25 77 0 21 -16 -5 -35 -57 -18 -50 -35 -79 -35 -59 0 6 11
38 24 72 14 34 21 64 16 67 -4 3 -18 -24 -31 -60 -12 -36 -26 -65 -31 -65 -4
0 3 30 17 66 27 71 30 88 16 79 -5 -3 -17 -29 -26 -58 -10 -28 -21 -56 -26
-62 -15 -16 -10 11 11 66 12 29 19 59 18 68 -2 9 -15 -14 -28 -51 -14 -38 -28
-68 -32 -68 -11 0 -11 -2 17 70 27 68 30 84 16 76 -4 -3 -18 -33 -30 -67 -13
-33 -25 -58 -28 -55 -3 3 4 33 16 66 12 34 21 66 18 73 -2 7 -14 -16 -27 -51
-13 -34 -27 -65 -31 -68 -14 -8 -11 0 50 159 12 32 14 31 81 -24z m834 -34
c39 -30 82 -64 94 -75 26 -25 29 -71 6 -125 -8 -20 -13 -39 -11 -41 8 -8 37
76 37 105 0 47 -7 56 -91 121 -84 65 -101 85 -45 52 70 -41 166 -124 172 -148
6 -24 2 -68 -10 -109 -4 -11 0 -6 8 10 8 17 15 47 16 69 0 40 -19 64 -115 144
l-40 33 38 -20 c21 -12 43 -19 48 -15 6 3 21 -2 35 -11 13 -9 29 -13 35 -10 5
4 21 -1 35 -10 13 -9 29 -13 35 -10 5 4 21 -1 35 -10 14 -9 28 -14 31 -11 11
11 63 -25 78 -54 31 -60 13 -174 -37 -227 -27 -29 -60 -33 -35 -5 10 10 17 22
17 26 0 5 -13 -6 -29 -23 -38 -40 -57 -41 -36 -1 21 41 19 51 -4 14 -24 -40
-29 -43 -80 -49 l-42 -5 16 29 c8 17 15 36 15 43 0 7 -9 -5 -19 -28 -16 -36
-46 -62 -58 -51 -2 2 3 23 11 45 19 54 11 55 -10 2 -15 -36 -49 -69 -60 -57
-2 2 3 20 11 40 8 20 15 42 14 49 0 7 -8 -7 -17 -32 -12 -30 -27 -50 -46 -58
-15 -8 -30 -12 -33 -9 -2 3 18 67 46 143 28 75 51 147 51 160 0 18 -21 41 -87
91 -47 38 -96 76 -107 86 -50 43 60 -15 128 -68z m-279 39 c30 -25 29 -26 -20
-14 -5 1 -26 2 -46 1 -53 -2 -58 -32 -12 -67 19 -14 33 -27 31 -29 -2 -2 -73
5 -158 16 -116 15 -160 24 -173 38 -17 17 -14 18 59 29 49 8 81 18 89 29 10
14 24 15 87 10 41 -4 83 -9 92 -13 12 -5 15 -2 10 10 -9 23 7 20 41 -10z
m-260 -4 c-11 -5 -31 -8 -45 -8 -23 0 -22 1 5 8 42 11 65 11 40 0z m-100 -10
l30 -8 -32 -1 c-18 0 -42 -10 -53 -21 -34 -34 -52 -22 -30 21 11 20 33 22 85
9z m313 -49 c17 -17 32 -36 32 -43 0 -26 -105 -300 -117 -305 -12 -5 -78 36
-70 43 2 3 17 0 32 -6 22 -8 32 -8 41 2 16 16 94 224 94 249 0 10 -13 31 -30
46 -29 26 -38 43 -22 43 4 0 22 -13 40 -29z m1902 9 c8 0 35 -58 29 -64 -2 -3
-20 -7 -40 -11 -33 -6 -37 -5 -43 19 -8 33 10 70 31 62 8 -3 18 -6 23 -6z
m-2239 -10 c25 -14 25 -39 0 -37 -11 0 -18 4 -15 8 2 4 0 10 -6 14 -11 7 -14
25 -4 25 3 0 14 -5 25 -10z m194 -46 c77 -10 142 -19 144 -20 5 -4 -69 -206
-80 -218 -9 -10 -318 21 -330 33 -4 3 9 48 28 99 27 71 40 92 54 92 11 0 19 7
19 15 0 19 -4 19 165 -1z m1977 -36 c-15 -15 -24 -6 -16 16 5 12 10 14 17 7 8
-8 8 -14 -1 -23z m-812 -68 c107 -5 270 -7 363 -3 105 4 167 3 167 -4 0 -26
-37 -45 -165 -86 -250 -79 -271 -83 -458 -68 -219 17 -209 13 -191 63 8 22 14
58 14 80 l0 40 38 -6 c20 -4 125 -11 232 -16z m500 -66 c0 -13 -62 -121 -94
-165 -32 -43 -40 -48 -114 -68 -303 -82 -630 -115 -854 -88 -63 8 -68 10 -68
33 0 49 22 114 39 115 9 1 86 1 171 0 85 -1 180 3 210 7 38 6 0 8 -120 6 -136
-3 -163 -1 -120 6 88 16 99 19 121 41 19 19 23 19 177 6 131 -12 150 -15 114
-22 -23 -4 -40 -10 -38 -13 13 -13 338 68 491 122 77 27 85 29 85 20z m-1333
-188 c2 -1 -2 -18 -8 -37 -6 -19 -14 -86 -17 -149 l-7 -115 -36 55 c-43 66
-69 135 -76 209 l-6 54 74 -7 c41 -4 75 -9 76 -10z m213 11 c0 -1 -7 -34 -15
-72 -54 -256 31 -487 215 -580 l51 -26 -30 -37 c-17 -20 -42 -50 -56 -67 l-24
-29 -53 25 c-129 64 -235 188 -284 334 -23 68 -27 98 -28 195 -1 64 5 142 13
176 l13 61 82 10 c100 12 116 14 116 10z m958 -79 c-10 -15 -29 -25 -54 -29
-23 -3 -95 -38 -172 -82 -73 -42 -152 -83 -176 -91 -170 -58 -452 -61 -554 -7
-19 10 -22 20 -22 76 l0 65 48 -8 c26 -4 139 -7 252 -6 223 0 355 17 569 73
58 16 110 29 115 30 5 0 2 -9 -6 -21z m52 -68 c50 -25 90 -79 97 -127 4 -29
-4 -61 -33 -133 -21 -52 -41 -96 -46 -98 -4 -2 -8 -15 -8 -28 0 -14 -4 -22
-10 -19 -6 4 -10 -7 -10 -27 0 -25 -3 -29 -10 -18 -7 11 -10 6 -10 -20 -1 -19
-7 -48 -15 -65 -12 -28 -13 -21 -14 82 -1 105 -2 113 -25 130 -13 10 -109 43
-215 73 -105 30 -191 59 -191 63 0 4 14 14 32 21 27 12 39 12 81 -1 27 -8 51
-12 53 -10 3 2 -16 10 -41 17 -25 7 -45 16 -45 20 0 22 56 14 193 -26 171 -51
196 -67 208 -136 6 -42 7 -42 8 -8 0 19 -8 49 -19 67 -20 34 -18 33 -280 111
-62 19 -64 20 -40 31 21 10 47 5 160 -28 150 -45 189 -71 191 -134 1 -25 3
-27 6 -9 7 35 -15 79 -51 101 -17 10 -84 34 -148 52 -65 19 -118 37 -118 41 0
21 52 16 151 -13 125 -36 163 -61 180 -120 7 -21 14 -37 17 -35 2 3 -1 20 -8
40 -18 57 -65 89 -176 121 -112 32 -128 41 -92 50 26 7 161 -26 208 -50 35
-18 58 -45 74 -91 8 -21 15 -33 15 -26 2 26 -27 79 -58 105 -18 14 -64 36
-104 47 -109 32 -104 30 -87 40 8 6 26 10 40 11 14 0 19 3 11 6 -11 5 -11 7 0
15 19 12 83 1 129 -22z m-920 -185 c98 -22 200 -19 375 10 l40 6 -25 -17 c-14
-9 -54 -52 -90 -96 l-65 -79 -95 4 c-52 3 -118 10 -147 17 l-52 11 -19 62
c-33 104 -34 110 -9 103 12 -4 51 -13 87 -21z m626 -84 c126 -38 203 -66 211
-77 17 -23 18 -236 1 -267 -13 -25 -147 -180 -160 -185 -4 -2 -8 48 -8 110 0
106 -2 116 -22 136 -13 11 -44 26 -70 32 -27 7 -48 15 -48 18 0 3 16 25 36 48
39 48 38 59 -6 69 -17 4 -30 10 -30 13 0 4 12 27 25 51 14 24 22 48 18 52 -4
4 -31 14 -60 22 l-52 16 -42 -72 c-23 -40 -53 -88 -65 -108 l-23 -37 -55 17
c-37 10 -54 20 -51 29 2 7 39 53 82 102 54 63 84 90 99 90 12 0 111 -27 220
-59z m-94 6 l28 -12 -90 -153 c-50 -84 -88 -157 -85 -162 3 -6 13 -10 21 -10
13 0 11 -7 -7 -37 -12 -21 -25 -42 -29 -46 -4 -5 -41 1 -81 13 -41 12 -81 23
-91 26 -14 4 -13 10 9 50 22 39 29 45 49 40 21 -6 30 6 95 116 39 68 80 138
91 156 21 35 44 40 90 19z m-430 -109 l107 -11 -25 -36 c-13 -20 -24 -50 -24
-68 l0 -33 -48 24 c-51 26 -123 90 -142 127 -11 20 -10 21 6 15 10 -4 67 -12
126 -18z m473 -39 c5 -6 3 -9 -5 -9 -27 0 -60 12 -60 21 0 11 50 1 65 -12z
m-46 -59 c-42 -51 -36 -71 26 -88 28 -8 52 -16 53 -17 2 -2 -36 -49 -85 -105
-85 -98 -89 -101 -122 -96 -19 3 -38 9 -42 13 -5 5 9 38 31 73 42 69 49 97 25
102 -10 2 -1 25 36 90 50 86 50 87 79 76 l30 -10 -31 -38z m-261 25 c29 -9 52
-18 52 -21 0 -3 -10 -23 -22 -44 -18 -31 -27 -38 -44 -34 -18 5 -30 -6 -68
-65 -50 -78 -63 -87 -100 -74 -24 8 -23 10 62 110 87 102 87 102 127 98 l40
-5 -45 15 c-45 15 -45 15 -67 -13 l-23 -27 0 31 c0 50 8 52 88 29z m308 -91
c79 -26 84 -37 84 -175 0 -104 -2 -119 -18 -128 -29 -15 -45 2 -22 22 17 15
20 30 20 115 0 118 -9 135 -80 152 -27 7 -50 16 -50 21 0 12 9 11 66 -7z m54
-149 l0 -85 -97 -115 -98 -115 -3 57 c-6 114 1 134 96 243 47 55 89 100 94
100 4 0 8 -38 8 -85z m-337 4 c47 -14 65 -24 60 -32 -4 -7 -8 -16 -10 -22 -8
-36 -21 -67 -22 -52 -1 10 4 27 10 38 9 18 8 19 -8 8 -17 -10 -80 2 -182 37
-11 3 -8 10 10 30 26 27 24 28 142 -7z m-187 -24 c20 -15 13 -18 -23 -9 -13 4
-23 10 -23 15 0 14 24 11 46 -6z m182 -51 c15 -4 22 -14 22 -30 0 -30 -6 -30
-100 -1 -67 20 -75 26 -78 49 l-3 27 68 -20 c37 -11 78 -22 91 -25z m-192 26
c15 -6 24 -13 22 -16 -3 -3 -21 2 -39 10 -39 16 -24 21 17 6z m22 -34 c69 -29
166 -58 207 -61 17 -2 42 -8 58 -14 27 -10 27 -12 27 -97 0 -64 -3 -85 -12
-82 -8 3 -15 31 -19 69 l-6 64 -1 -57 c-2 -44 -6 -58 -17 -58 -12 0 -15 14
-15 66 0 41 -4 63 -10 59 -5 -3 -10 -31 -10 -61 0 -30 -4 -54 -10 -54 -6 0
-10 28 -10 65 0 37 -4 65 -10 65 -6 0 -10 -27 -10 -61 0 -84 -23 -75 -31 12
l-6 64 -1 -63 c-3 -86 -26 -81 -30 6 -4 77 -22 82 -22 7 0 -30 -4 -55 -10 -55
-6 0 -10 26 -10 59 0 33 -4 63 -10 66 -6 4 -10 -17 -10 -55 0 -85 -23 -77 -31
11 l-6 64 -1 -63 c-3 -86 -25 -80 -33 9 -5 63 -10 59 -13 -11 0 -19 -5 -36
-11 -38 -6 -1 -11 33 -13 83 -2 55 1 85 8 85 6 0 36 -11 68 -24z m292 -29 c14
-5 20 -11 13 -14 -17 -6 -83 16 -83 28 0 10 20 6 70 -14z m-14 -23 c13 -3 22
-10 19 -14 -6 -10 -75 10 -75 23 0 5 7 6 16 3 9 -3 27 -9 40 -12z"/>
<path d="M1798 2053 c23 -2 61 -2 85 0 23 2 4 4 -43 4 -47 0 -66 -2 -42 -4z"/>
<path d="M1678 2043 c12 -2 32 -2 45 0 12 2 2 4 -23 4 -25 0 -35 -2 -22 -4z"/>
<path d="M2173 2033 c26 -2 67 -2 90 0 23 2 2 3 -48 3 -49 0 -68 -1 -42 -3z"/>
<path d="M746 1721 c5 -4 56 -14 114 -20 58 -7 123 -15 145 -18 27 -4 37 -2
30 4 -5 6 -69 18 -141 27 -152 19 -161 19 -148 7z"/>
<path d="M640 1442 c0 -10 288 -48 297 -39 7 8 -23 14 -132 27 -49 6 -107 13
-127 16 -21 3 -38 2 -38 -4z"/>
<path d="M1145 1756 c22 -20 43 -36 46 -36 4 0 12 -14 19 -30 12 -28 10 -79
-4 -125 -4 -11 1 -4 10 15 11 23 14 50 11 80 -4 36 -12 51 -44 78 -21 18 -47
37 -58 43 -11 5 -2 -6 20 -25z"/>
<path d="M1218 1733 c49 -43 63 -96 43 -155 -9 -26 -9 -30 1 -20 8 8 13 37 13
72 0 52 -4 63 -30 90 -16 18 -39 36 -50 41 -11 6 -1 -7 23 -28z"/>
<path d="M1280 1716 c33 -35 35 -42 35 -102 0 -35 3 -56 7 -47 22 56 -5 143
-52 172 -20 12 -18 7 10 -23z"/>
<path d="M1342 1702 c18 -27 23 -47 23 -95 -1 -54 0 -58 8 -30 13 44 1 98 -29
130 l-25 28 23 -33z"/>
<path d="M1212 1455 c-7 -15 -11 -30 -8 -32 7 -7 28 36 24 49 -2 6 -9 -2 -16
-17z"/>
<path d="M1563 1403 c9 -2 25 -2 35 0 9 3 1 5 -18 5 -19 0 -27 -2 -17 -5z"/>
<path d="M2028 1210 c72 -26 108 -54 128 -100 20 -45 30 -48 14 -4 -17 45 -59
82 -117 104 -30 11 -59 20 -66 19 -7 0 12 -9 41 -19z"/>
<path d="M1781 1046 c2 -2 54 -19 114 -37 61 -17 118 -37 127 -43 20 -12 35
-47 41 -91 3 -16 3 -8 2 18 -1 33 -9 55 -22 68 -11 11 -71 35 -134 54 -108 33
-138 40 -128 31z"/>
<path d="M1903 795 c-72 -83 -80 -95 -65 -95 12 0 144 160 140 170 -2 5 -36
-28 -75 -75z"/>
<path d="M2708 1923 c12 -2 30 -2 40 0 9 3 -1 5 -23 4 -22 0 -30 -2 -17 -4z"/>
<path d="M2730 1570 c-6 -11 -8 -20 -6 -20 3 0 10 9 16 20 6 11 8 20 6 20 -3
0 -10 -9 -16 -20z"/>
</g>
</svg>
