<?xml version="1.0" standalone="no"?>
<!DOCTYPE svg PUBLIC "-//W3C//DTD SVG 20010904//EN"
 "http://www.w3.org/TR/2001/REC-SVG-20010904/DTD/svg10.dtd">
<svg version="1.0" xmlns="http://www.w3.org/2000/svg"
 width="917.000000pt" height="853.000000pt" viewBox="0 0 917.000000 853.000000"
 preserveAspectRatio="xMidYMid meet">

<g transform="translate(0.000000,853.000000) scale(0.100000,-0.100000)"
fill="#000000" stroke="none">
<path d="M5105 8473 c-79 -10 -284 -57 -339 -77 -208 -78 -368 -186 -821 -554
-438 -356 -672 -523 -1091 -782 l-271 -168 -394 -26 c-217 -14 -529 -31 -694
-37 -342 -13 -801 -8 -858 10 -20 7 -72 38 -115 71 -92 69 -258 163 -386 219
-118 51 -136 56 -136 39 0 -17 12 -24 204 -125 161 -84 246 -143 246 -169 0
-8 -1 -14 -2 -15 -2 0 -59 -4 -128 -9 -216 -14 -347 -46 -316 -77 3 -3 52 1
108 10 260 43 316 23 519 -181 316 -319 488 -587 831 -1295 353 -730 395 -814
482 -967 127 -222 222 -371 343 -537 58 -79 102 -148 97 -153 -5 -4 -46 -24
-92 -43 -96 -42 -187 -104 -284 -195 -38 -36 -70 -63 -72 -61 -2 2 -73 99
-158 214 -169 229 -254 355 -343 510 -74 129 -287 557 -394 795 -97 214 -292
608 -359 725 -148 259 -266 410 -491 635 -132 132 -187 180 -189 168 -5 -26
10 -44 253 -295 173 -178 221 -233 208 -237 -10 -3 -46 -10 -81 -17 -72 -14
-66 -29 11 -29 63 0 97 -19 141 -78 52 -71 146 -260 146 -294 0 -39 -27 -50
-212 -84 -81 -15 -145 -31 -142 -36 3 -4 32 -8 64 -8 72 0 90 -6 90 -31 0 -34
-39 -98 -63 -103 -12 -3 -31 -7 -42 -9 -29 -6 43 -37 259 -113 204 -73 248
-96 305 -160 56 -64 261 -478 261 -527 0 -35 -59 7 -345 247 -432 363 -628
547 -606 569 18 18 13 24 -26 31 -21 3 -67 24 -103 46 -126 76 -120 74 -120
47 0 -18 36 -56 148 -154 230 -204 424 -369 743 -634 305 -255 408 -354 475
-459 101 -159 297 -452 344 -514 114 -151 190 -276 190 -311 0 -27 -51 -17
-124 27 -244 144 -866 589 -1250 896 -186 148 -254 212 -305 287 -57 83 -47
31 12 -68 61 -103 132 -197 168 -226 13 -10 42 -26 64 -37 41 -19 94 -58 334
-244 190 -146 487 -357 756 -535 127 -85 243 -167 259 -184 25 -26 29 -38 32
-103 3 -79 25 -160 98 -360 44 -121 56 -178 38 -178 -52 0 -557 449 -812 723
-164 174 -341 383 -507 597 -130 168 -213 264 -220 256 -9 -9 85 -141 237
-331 374 -467 762 -867 1129 -1164 211 -171 242 -208 316 -381 74 -172 235
-604 235 -631 0 -48 -336 137 -655 360 -287 201 -551 425 -858 729 -269 266
-420 437 -732 829 -100 125 -110 135 -113 110 -3 -21 14 -52 75 -135 323 -444
978 -1118 1399 -1439 130 -99 378 -262 574 -378 346 -204 436 -277 632 -508
237 -279 380 -437 425 -467 47 -31 50 -32 129 -27 124 9 126 8 390 -299 193
-224 251 -281 299 -290 48 -9 163 24 1246 352 l46 14 7 268 c8 289 1 381 -33
436 -12 18 -21 41 -21 51 0 31 80 97 191 158 270 150 550 411 722 672 120 184
206 390 292 705 33 120 79 220 136 290 172 212 290 501 338 826 34 225 25 201
79 208 349 43 352 44 525 160 67 45 147 90 177 99 30 10 191 38 358 62 352 52
399 63 461 106 159 112 701 535 701 547 0 4 -11 48 -24 97 -55 204 -204 613
-232 636 -8 7 -37 11 -65 10 l-50 -1 -18 43 c-24 56 -40 60 -166 42 -133 -19
-317 -19 -446 1 -153 23 -218 23 -262 -1 -30 -16 -41 -17 -55 -8 -93 66 -109
69 -427 93 -205 15 -192 8 -246 131 -26 57 -77 187 -114 289 -224 614 -542
1339 -675 1535 -110 162 -279 307 -475 407 -144 73 -220 100 -412 142 -155 35
-265 43 -378 29z m356 -73 c138 -20 369 -116 512 -212 94 -63 223 -175 282
-245 97 -113 145 -189 224 -355 199 -411 600 -1430 613 -1556 l3 -27 -60 3
c-33 2 -112 12 -176 23 -64 10 -135 19 -158 19 -77 0 -206 -59 -182 -83 6 -6
31 1 66 17 89 40 164 35 524 -35 249 -48 418 -71 533 -73 l107 -1 -36 -19
c-30 -15 -34 -20 -20 -27 36 -21 137 -22 213 -4 66 17 84 18 174 6 112 -13
160 -27 160 -45 0 -28 -210 -204 -277 -233 -46 -19 -112 -16 -206 8 -81 20
-117 40 -117 64 0 30 -194 79 -739 191 -201 41 -374 77 -383 80 -12 4 -36 62
-82 203 -109 333 -294 814 -440 1143 -114 256 -131 285 -221 375 -70 69 -99
89 -186 132 -135 65 -198 81 -344 88 -107 5 -132 2 -228 -21 -115 -28 -224
-33 -362 -17 -91 10 -281 -4 -403 -30 -75 -16 -320 -92 -440 -137 -35 -13 12
39 112 125 218 188 618 478 744 542 70 36 217 77 337 96 96 16 364 18 456 5z
m-47 -606 c118 -31 238 -97 324 -178 98 -93 186 -260 345 -661 227 -571 347
-916 347 -996 0 -37 -17 -46 -41 -22 -11 10 -93 163 -182 338 -428 837 -628
1119 -933 1310 -96 60 -145 86 -271 141 -44 18 -41 31 10 54 92 41 274 47 401
14z m-668 -65 c116 -16 236 -54 363 -115 302 -144 495 -358 778 -859 177 -314
475 -897 497 -971 8 -26 21 -21 -289 -119 l-230 -72 -200 396 c-111 218 -227
441 -260 496 -248 422 -414 582 -697 670 -99 31 -137 28 -63 -5 160 -71 278
-135 340 -184 185 -147 350 -395 601 -896 119 -239 204 -428 204 -453 0 -21
-69 -61 -170 -98 -78 -28 -83 -29 -95 -12 -183 260 -364 480 -574 695 -178
184 -301 290 -450 390 -204 136 -367 204 -644 269 -93 21 -172 41 -178 44 -34
21 19 64 176 142 165 83 335 130 539 148 93 9 84 25 -14 25 -186 0 -388 -58
-560 -160 -198 -117 -235 -125 -655 -139 -277 -9 -385 -6 -385 10 0 30 781
492 1110 657 215 107 391 148 662 151 64 0 151 -4 194 -10z m-986 -904 c303
-37 580 -160 830 -368 112 -94 438 -421 571 -573 191 -219 297 -368 286 -398
-6 -16 -184 -76 -363 -125 -184 -49 -166 -50 -230 11 -31 29 -112 116 -179
193 -298 342 -677 618 -887 649 -27 4 -48 3 -48 -2 0 -5 44 -26 98 -46 249
-97 417 -220 713 -522 171 -175 279 -300 279 -324 0 -9 -24 -31 -56 -51 -178
-109 -183 -113 -297 -259 -24 -30 -54 -60 -68 -67 -113 -55 -1471 -98 -2400
-76 l-284 6 -59 131 c-158 347 -206 459 -225 520 -20 64 -19 96 1 96 6 0 274
130 597 289 322 159 602 294 621 301 19 7 39 17 45 22 5 4 -97 7 -225 7 l-235
-2 125 -14 c69 -8 136 -17 150 -20 20 -4 -48 -42 -335 -186 -355 -178 -633
-311 -726 -348 l-48 -18 -36 37 c-42 44 -154 209 -185 274 -13 25 -20 53 -17
62 7 18 74 53 202 107 107 45 106 45 -115 53 -197 8 -223 15 -257 69 -42 67
-158 201 -305 353 l-138 141 368 6 c408 7 642 17 1122 48 770 49 1436 58 1710
24z m-2510 -710 c-92 -48 -150 -46 -150 6 0 18 45 28 130 28 l85 0 -65 -34z
m5357 -276 c189 -25 913 -176 951 -198 12 -8 -13 -11 -88 -11 -58 0 -150 -5
-205 -10 -55 -6 -144 -13 -199 -17 -92 -6 -98 -5 -95 12 5 24 42 33 162 41 54
4 94 10 90 14 -24 22 -538 123 -690 136 -81 6 -94 16 -49 34 28 12 32 12 123
-1z m2121 -53 c5 -44 -4 -59 -28 -46 -22 12 -25 31 -9 61 14 27 33 19 37 -15z
m-125 -11 c40 -28 77 -89 77 -130 0 -35 -66 -104 -183 -193 -51 -38 -104 -77
-119 -86 -26 -17 -27 -17 -41 11 -8 15 -22 52 -32 81 -25 78 -14 96 119 197
126 94 158 125 134 125 -14 0 -105 -61 -202 -135 -63 -48 -178 -93 -251 -100
l-70 -6 45 41 c111 102 230 179 313 205 23 8 71 14 107 14 54 1 72 -3 103 -24z
m-1764 -44 c11 -7 21 -20 21 -29 0 -21 -66 -86 -170 -167 -89 -69 -150 -125
-150 -138 0 -11 155 -2 325 17 61 8 111 13 112 12 1 -1 -28 -27 -65 -58 -93
-75 -106 -106 -99 -222 6 -102 29 -182 132 -466 134 -369 187 -533 174 -540
-6 -4 -102 -20 -213 -34 -110 -15 -230 -31 -266 -37 -101 -14 -455 -49 -504
-49 -57 0 -84 23 -123 102 -60 124 -251 656 -298 830 -10 39 -15 78 -11 94 15
57 191 214 511 456 310 233 346 251 501 245 56 -3 111 -10 123 -16z m-525 -65
c-3 -8 -135 -118 -292 -244 -396 -316 -405 -327 -372 -455 11 -41 52 -167 91
-278 118 -340 207 -602 213 -631 6 -25 3 -28 -19 -28 -14 0 -45 10 -68 21 -86
43 -105 65 -167 192 -69 142 -77 127 -20 -34 48 -134 49 -149 15 -149 -53 0
-140 106 -190 232 -24 60 -55 106 -55 81 0 -6 16 -59 35 -119 38 -121 44 -164
20 -164 -53 0 -121 72 -179 187 -19 39 -41 75 -47 79 -22 13 0 -58 45 -148 25
-49 43 -88 42 -88 -27 0 -241 33 -266 41 -48 16 -73 41 -136 138 -30 46 -57
81 -60 78 -3 -3 13 -48 35 -100 23 -53 41 -101 41 -106 0 -38 -87 17 -180 113
-71 74 -85 56 -20 -26 22 -28 40 -54 40 -59 0 -39 -94 5 -150 69 -50 57 -122
204 -144 292 -39 154 -30 340 20 446 47 99 196 211 262 198 24 -5 46 1 94 27
47 24 81 35 133 39 53 5 81 13 115 35 36 23 58 29 105 31 47 1 75 9 130 37 54
27 81 35 120 34 41 0 68 8 155 52 118 59 117 58 -35 -69 -205 -170 -317 -291
-343 -369 -25 -71 -8 -208 38 -315 11 -27 22 -47 24 -45 3 2 -4 40 -15 84 -12
48 -20 120 -21 181 -2 122 3 132 124 250 135 132 319 272 476 363 72 42 98 47
71 15 -7 -9 -92 -79 -189 -157 -251 -201 -292 -239 -323 -296 -39 -71 -40
-179 -3 -305 30 -101 73 -196 88 -196 13 0 2 46 -39 160 -63 171 -54 308 23
385 68 69 340 279 495 383 77 51 261 152 279 152 5 0 7 -7 4 -14z m2554 -5
c20 -13 222 -540 222 -581 0 -11 -4 -20 -10 -20 -13 0 -50 76 -110 227 -29 70
-60 142 -71 158 l-19 30 0 -37 c0 -20 23 -108 50 -195 49 -151 70 -243 57
-243 -11 0 -55 93 -101 214 -57 147 -83 196 -102 196 -25 0 -12 -48 72 -271
41 -108 74 -202 74 -208 0 -6 -7 -11 -15 -11 -18 0 -58 79 -119 237 -26 68
-56 133 -66 145 l-19 23 -1 -35 c0 -19 27 -113 60 -209 59 -173 71 -226 48
-219 -17 6 -42 58 -88 183 -54 145 -80 201 -101 221 -16 14 -19 15 -24 2 -6
-15 13 -78 89 -293 25 -71 46 -143 46 -160 -1 -29 -1 -29 -16 -10 -20 26 -56
105 -79 175 -27 83 -92 220 -104 220 -21 0 -10 -57 35 -185 82 -232 95 -278
85 -288 -13 -13 -53 59 -105 195 -49 126 -90 213 -105 222 -27 17 -16 -32 49
-226 39 -116 70 -223 68 -237 -3 -26 -3 -26 -26 9 -21 33 -36 71 -106 257 -29
77 -63 134 -83 141 -25 7 -12 -39 67 -258 77 -210 88 -257 53 -229 -22 19 -46
72 -93 204 -47 133 -71 185 -94 204 -29 25 -18 -31 44 -226 70 -215 77 -281
18 -168 -42 81 -127 307 -157 415 -14 51 -20 99 -18 146 2 66 3 70 23 66 51
-9 183 73 429 268 140 111 207 159 225 159 3 1 11 -3 18 -8z m-1944 -67 c0
-10 -4 -30 -8 -43 -9 -27 -28 -28 154 5 47 8 164 18 261 21 l175 6 35 -30 c67
-59 124 -77 351 -113 184 -29 205 -41 155 -88 -47 -45 -167 -72 -530 -122
-236 -32 -487 -59 -546 -60 l-34 0 24 26 c13 14 50 46 81 71 68 52 113 121
104 158 -10 41 -59 58 -172 63 -71 3 -123 -1 -174 -12 -40 -9 -75 -14 -79 -10
-14 14 171 159 194 151 5 -2 10 -13 9 -23z m844 -71 c89 -20 96 -37 10 -28
-75 8 -158 33 -158 47 0 11 33 7 148 -19z m456 -25 c28 -12 76 -98 76 -134 0
-12 -7 -27 -15 -34 -20 -17 -50 -4 -103 45 -55 49 -119 75 -210 83 l-77 7 85
22 c94 24 205 29 244 11z m-1126 -100 c2 -10 -31 -53 -81 -106 -87 -91 -117
-135 -117 -172 0 -76 250 -736 312 -823 18 -25 25 -28 62 -25 22 3 71 13 108
23 37 11 71 15 75 11 18 -18 -139 -123 -209 -140 -26 -6 -29 -2 -66 76 -128
269 -364 919 -345 952 27 48 98 127 157 172 69 55 98 64 104 32z m-6370 -34
c47 -33 68 -113 51 -193 -17 -79 -37 -88 -144 -67 -125 24 -138 31 -131 64 4
15 23 61 44 102 35 71 39 75 87 91 65 22 67 22 93 3z m7434 -44 c-1 -13 -13
-36 -26 -50 -13 -14 -26 -34 -28 -45 -3 -16 -11 -20 -47 -20 -87 0 -79 66 14
117 61 34 91 33 87 -2z m-211 -110 c11 -6 19 -21 19 -35 0 -26 27 -48 71 -59
48 -11 114 -140 202 -396 50 -146 68 -227 53 -239 -19 -16 -188 -42 -536 -81
-142 -15 -363 -30 -467 -30 l-91 0 -47 112 c-57 133 -189 496 -206 563 -9 35
-9 49 -1 54 21 13 840 117 940 120 24 1 52 -4 63 -9z m-7072 -112 c22 -64 8
-91 -34 -64 -40 27 -48 50 -24 79 24 31 44 26 58 -15z m3551 -277 c0 -106 17
-216 52 -328 30 -98 30 -104 14 -122 -32 -35 -128 -48 -686 -92 -522 -40 -672
-22 -1250 155 -587 180 -799 273 -788 348 5 37 74 41 503 28 662 -20 1667 12
2030 65 50 7 98 13 108 14 15 1 17 -8 17 -68z m-2254 -297 c521 -172 1282
-369 1547 -400 111 -13 51 25 -81 51 -19 4 -30 11 -25 15 17 17 680 80 845 80
96 0 140 -13 173 -50 53 -60 165 -97 413 -135 23 -4 40 -11 37 -16 -3 -5 -195
-6 -445 -2 -309 4 -440 3 -440 -4 0 -6 21 -14 48 -17 107 -14 511 -26 878 -26
444 0 404 8 447 -90 54 -122 76 -320 40 -352 -71 -62 -741 -97 -1223 -64 -573
40 -1188 141 -1737 285 -284 75 -341 99 -410 174 -95 103 -373 567 -373 622 0
9 9 15 23 15 13 0 140 -39 283 -86z m4634 -504 c0 -45 -44 -332 -60 -395 -45
-172 -139 -365 -279 -574 -44 -66 -50 -72 -55 -50 -3 13 -12 150 -21 303 -17
306 -35 460 -67 579 -13 48 -18 81 -12 87 9 9 162 30 359 49 128 12 135 12
135 1z m-944 -30 c257 -28 383 -46 390 -53 11 -11 53 -219 68 -337 34 -265 29
-700 -9 -886 -51 -245 -189 -543 -354 -766 -136 -181 -321 -358 -491 -467 -58
-37 -323 -171 -337 -170 -4 0 -29 26 -54 57 -26 31 -106 128 -178 215 -72 87
-131 161 -131 165 0 4 61 38 134 76 279 143 458 320 604 596 140 265 199 553
189 920 -5 209 -27 363 -92 648 -5 20 -2 22 38 22 24 0 124 -9 223 -20z
m-3241 -234 c816 -214 1099 -257 1817 -278 410 -12 1001 0 1113 22 28 5 65 12
84 15 l34 6 -5 -193 c-3 -139 -8 -201 -19 -223 -23 -49 -144 -102 -308 -135
-420 -84 -1038 -55 -1486 70 -128 36 -314 124 -610 290 -387 218 -530 285
-707 335 -62 17 -119 60 -144 106 -19 37 -18 51 4 45 9 -2 112 -29 227 -60z
m45 -171 l22 -20 -21 -16 c-24 -19 -28 -17 73 -34 57 -9 116 -35 116 -50 0
-12 -95 -55 -120 -55 -40 0 -353 -111 -443 -157 -94 -48 -116 -64 -160 -118
-60 -72 -111 -170 -127 -240 -15 -68 -5 -68 26 1 73 164 86 188 139 243 31 32
83 73 115 90 120 64 370 137 571 167 104 15 117 15 152 1 20 -9 37 -21 37 -27
0 -19 -101 -57 -303 -116 -278 -80 -413 -138 -513 -221 -76 -62 -137 -175
-160 -297 -12 -65 11 -34 51 69 58 149 100 202 215 267 111 63 420 163 642
207 127 26 225 25 242 -2 8 -14 8 -20 -4 -27 -23 -14 -141 -54 -310 -105 -228
-68 -478 -154 -533 -182 -102 -51 -177 -148 -197 -253 -9 -48 -4 -137 7 -126
3 3 9 38 13 80 11 90 34 138 93 193 86 79 290 162 631 257 244 68 348 90 394
81 48 -9 94 -33 90 -47 -5 -15 -25 -21 -443 -148 -412 -125 -512 -160 -575
-198 -88 -54 -151 -191 -149 -326 1 -77 0 -81 34 76 38 177 128 240 520 365
263 84 585 163 690 170 78 5 92 3 105 -12 13 -15 12 -19 -9 -36 -12 -10 -73
-34 -134 -54 -62 -19 -119 -39 -127 -45 -26 -17 39 -11 120 11 194 54 229 56
318 18 50 -22 102 -56 102 -68 0 -21 -298 -121 -691 -232 -171 -48 -454 -140
-558 -181 -99 -39 -130 -62 -154 -117 -18 -42 -21 -73 -26 -358 -4 -171 -10
-315 -14 -320 -5 -4 -12 -1 -18 7 -22 35 -59 176 -65 250 -7 85 -16 104 -34
70 -17 -32 -30 -14 -31 43 -1 74 -11 101 -37 105 -23 4 -27 14 -35 89 -3 25
-18 63 -35 89 -38 57 -150 319 -205 479 -38 109 -42 129 -42 221 0 99 1 102
44 190 58 119 170 232 282 286 65 32 172 65 259 82 58 10 149 0 170 -19z
m2976 -620 c8 -21 -5 -74 -83 -326 l-67 -217 -130 -26 c-212 -42 -562 -76
-787 -76 l-65 0 -150 182 c-172 211 -318 366 -389 415 l-50 35 50 -6 c28 -3
124 -16 215 -30 313 -46 477 -59 710 -53 236 5 311 16 555 77 174 44 184 45
191 25z m-1646 -166 c65 -40 280 -271 476 -515 80 -100 85 -111 51 -140 -23
-20 -209 -86 -307 -109 -24 -6 -33 6 -146 192 -67 109 -163 270 -214 358 -51
88 -94 161 -95 162 -3 4 -253 -72 -317 -97 -53 -19 -58 -24 -58 -51 0 -17 30
-87 70 -165 39 -75 70 -142 70 -149 0 -19 -12 -25 -92 -45 -84 -22 -118 -43
-118 -73 0 -29 43 -97 125 -197 73 -90 90 -119 78 -129 -11 -10 -80 -35 -173
-61 -136 -40 -228 -101 -258 -170 -12 -27 -17 -105 -23 -350 -5 -173 -13 -335
-17 -360 l-9 -45 -78 80 c-93 95 -358 402 -420 485 -64 88 -70 133 -70 505 0
324 9 414 43 447 25 24 158 77 387 153 319 106 982 294 1040 295 11 0 36 -10
55 -21z m-249 -135 c37 -19 72 -72 283 -438 217 -374 272 -461 323 -515 42
-43 43 -44 94 -37 50 7 52 6 88 -32 37 -40 101 -147 123 -208 10 -29 10 -36
-2 -48 -30 -28 -499 -149 -558 -144 -41 3 -62 29 -142 174 -49 87 -50 104 -11
104 16 0 39 9 52 19 l24 20 -76 148 c-42 81 -173 314 -293 517 -119 202 -216
372 -216 376 0 5 12 13 28 18 15 6 54 22 87 36 70 30 151 34 196 10z m1669
-324 c0 -41 -105 -176 -212 -271 -109 -97 -190 -153 -319 -219 l-116 -59 -6
82 c-6 102 -32 171 -102 279 -47 72 -52 84 -37 90 9 4 112 16 227 28 247 24
485 57 517 70 31 12 48 12 48 0z m-1820 -150 c0 -26 -120 -69 -193 -70 -48 0
-29 32 33 57 56 23 160 31 160 13z m44 -92 c57 -57 286 -464 286 -507 0 -10
-13 -27 -30 -39 -16 -13 -30 -32 -30 -43 0 -41 42 -136 119 -269 85 -145 125
-234 117 -256 -7 -17 -128 -54 -178 -54 -61 0 -101 25 -185 114 -151 160 -462
532 -463 552 0 6 60 29 133 52 148 47 193 70 207 108 20 50 -2 95 -112 230
-31 39 -58 77 -60 84 -3 12 108 58 146 59 10 1 33 -14 50 -31z m1042 -53 c8
-21 14 -68 14 -120 l0 -85 -71 80 c-60 69 -75 80 -102 80 -28 0 -214 -55 -226
-66 -3 -3 33 -1 80 2 136 11 149 0 463 -370 179 -212 221 -269 212 -292 -8
-20 -68 -44 -111 -44 -77 0 -118 40 -263 257 -54 81 -118 165 -142 187 -39 35
-46 38 -86 32 -40 -5 -48 -3 -82 29 -22 20 -60 75 -90 134 -52 98 -52 100 -32
111 72 38 291 98 363 99 57 1 58 0 73 -34z m-1089 -282 c6 -17 -61 -48 -154
-72 -104 -27 -152 -47 -186 -79 -74 -69 -90 -163 -85 -488 4 -251 7 -268 67
-334 41 -45 38 -74 -8 -78 -49 -5 -87 15 -108 56 -16 34 -18 68 -18 362 0 279
3 334 18 389 23 84 55 125 125 160 48 24 193 75 267 94 33 8 78 3 82 -10z
m-274 -332 c113 -120 326 -367 398 -464 66 -88 110 -176 130 -257 14 -58 16
-277 4 -432 l-7 -87 -92 107 c-51 59 -197 231 -325 382 l-233 275 5 255 c6
248 11 310 27 310 4 0 46 -40 93 -89z m1420 -110 c35 -23 107 -108 107 -126 0
-34 -431 -155 -550 -155 -28 0 -65 7 -81 16 -17 8 -33 14 -35 12 -2 -2 8 -31
21 -64 26 -64 34 -127 13 -106 -11 11 -86 219 -91 251 -5 34 102 78 368 151
159 44 208 48 248 21z m341 -107 c46 -18 -4 -60 -96 -81 -75 -17 -92 -6 -46
32 54 46 105 63 142 49z m-220 -121 c-13 -113 -27 -122 -290 -204 -129 -41
-184 -53 -234 -54 l-65 0 -3 55 c-3 80 12 95 128 125 52 13 176 48 275 78 99
30 184 55 188 56 5 0 5 -25 1 -56z m246 18 c0 -11 -79 -49 -139 -67 -53 -17
-61 -17 -61 -4 0 16 48 42 113 61 72 21 87 22 87 10z m43 -101 c11 -41 2 -394
-12 -458 -23 -111 -50 -63 -63 107 -5 69 -13 130 -19 136 -6 5 -9 4 -9 -3 0
-7 -5 -56 -10 -110 -20 -185 -47 -275 -75 -252 -21 17 -35 100 -35 203 0 137
-14 133 -28 -7 -12 -127 -37 -227 -59 -234 -23 -7 -35 51 -43 198 -8 143 -14
180 -31 180 -16 0 -28 -76 -37 -233 -5 -94 -14 -163 -21 -170 -24 -24 -34 13
-42 150 -7 143 -15 193 -30 193 -20 0 -31 -49 -45 -197 -15 -157 -33 -228 -56
-221 -24 8 -38 80 -45 222 l-7 141 -12 -120 c-17 -183 -40 -275 -68 -275 -21
0 -36 62 -36 155 -1 98 -15 214 -28 227 -22 22 -34 -39 -42 -206 -7 -168 -20
-230 -41 -209 -13 13 -29 123 -29 205 0 74 -17 168 -30 168 -19 0 -24 -32 -31
-196 -8 -183 -16 -217 -52 -212 -36 5 -49 50 -56 202 l-7 141 -7 -85 c-18
-191 -45 -308 -74 -318 -22 -7 -32 42 -38 185 -8 180 5 346 30 373 24 26 150
66 256 80 173 23 415 96 714 213 77 30 147 57 155 60 34 13 54 2 63 -33z
m-989 -78 c20 -32 -141 -102 -236 -102 -89 0 -53 28 99 80 90 30 128 36 137
22z m0 -107 c-1 -21 -118 -68 -181 -73 -63 -5 -78 3 -49 27 8 7 49 23 93 36
79 24 139 28 137 10z"/>
<path d="M2945 6270 c-18 -4 34 -8 125 -8 107 0 143 3 115 9 -49 10 -199 9
-240 -1z"/>
<path d="M3483 6233 c26 -2 68 -2 95 0 26 2 4 3 -48 3 -52 0 -74 -1 -47 -3z"/>
<path d="M1685 6200 c25 -11 211 -11 245 0 15 5 -33 8 -120 8 -89 0 -137 -3
-125 -8z"/>
<path d="M6555 5174 c-11 -2 -117 -15 -235 -29 -271 -33 -484 -69 -539 -91
-86 -34 -16 -34 270 1 519 63 641 83 668 110 14 13 7 15 -64 14 -44 -1 -89 -3
-100 -5z"/>
<path d="M6570 4194 c-364 -46 -442 -59 -480 -79 l-25 -13 26 -7 c62 -15 771
73 931 116 21 5 38 14 38 19 0 19 -155 7 -490 -36z"/>
<path d="M5381 5309 c-112 -79 -215 -181 -242 -242 -21 -46 -24 -66 -24 -177
1 -114 3 -131 29 -193 16 -37 30 -66 32 -65 2 2 -4 31 -13 63 -11 40 -17 101
-17 185 -1 118 1 129 28 188 25 54 41 72 100 117 91 68 193 161 185 169 -3 3
-38 -17 -78 -45z"/>
<path d="M5150 5243 c-68 -51 -154 -148 -179 -203 -12 -27 -16 -68 -16 -180 1
-144 11 -207 39 -245 25 -35 25 -12 -1 75 -21 71 -24 100 -20 176 6 134 39
198 164 326 53 54 92 98 86 98 -6 0 -39 -21 -73 -47z"/>
<path d="M4964 5211 c-52 -38 -76 -65 -117 -134 -44 -72 -77 -193 -77 -278 0
-71 22 -170 33 -152 4 7 11 88 16 180 9 197 9 196 118 318 41 47 74 88 71 90
-3 3 -22 -8 -44 -24z"/>
<path d="M4721 5108 c-85 -105 -116 -198 -108 -327 3 -47 11 -104 18 -126 13
-38 14 -30 19 120 7 182 19 229 80 324 22 34 38 61 37 61 -2 0 -23 -24 -46
-52z"/>
<path d="M5110 4302 c0 -34 49 -134 69 -140 19 -6 9 43 -25 113 -28 61 -44 70
-44 27z"/>
<path d="M3875 4100 c11 -5 36 -9 55 -9 19 0 44 4 55 9 14 6 -4 9 -55 9 -51 0
-69 -3 -55 -9z"/>
<path d="M2545 3513 c-47 -10 -185 -58 -244 -85 -170 -76 -303 -214 -345 -357
-19 -64 -18 -61 -7 -61 5 0 34 50 66 110 90 173 185 244 465 350 102 39 131
58 65 43z"/>
<path d="M3170 2899 c-259 -67 -584 -175 -703 -233 -105 -51 -148 -129 -146
-260 l1 -61 14 64 c17 80 57 167 91 203 30 32 118 68 313 128 330 102 516 162
525 171 14 13 -10 10 -95 -12z"/>
<path d="M2610 2311 c0 -27 262 -358 389 -490 65 -67 91 -81 91 -46 0 16 -79
117 -221 281 -163 190 -259 284 -259 255z"/>
<path d="M67 5833 c24 -2 62 -2 85 0 24 2 5 4 -42 4 -47 0 -66 -2 -43 -4z"/>
<path d="M40 4714 c0 -13 58 -111 70 -119 16 -10 12 12 -9 53 -19 37 -61 83
-61 66z"/>
</g>
</svg>
