<?xml version="1.0" standalone="no"?>
<!DOCTYPE svg PUBLIC "-//W3C//DTD SVG 20010904//EN"
 "http://www.w3.org/TR/2001/REC-SVG-20010904/DTD/svg10.dtd">
<svg version="1.0" xmlns="http://www.w3.org/2000/svg"
 width="160.000000pt" height="160.000000pt" viewBox="0 0 160.000000 160.000000"
 preserveAspectRatio="xMidYMid meet">

<g transform="translate(0.000000,160.000000) scale(0.100000,-0.100000)"
fill="#000000" stroke="none">
<path d="M1243 1568 c-50 -64 -276 -396 -276 -405 0 -19 86 -142 99 -143 16 0
24 24 13 41 -18 28 -8 54 61 150 39 54 73 105 76 113 3 8 -2 26 -11 40 -16 25
-16 27 36 101 42 60 51 79 43 92 -14 23 -29 26 -41 11z"/>
<path d="M272 1533 c-4 -10 -7 -159 -7 -331 0 -299 1 -314 19 -328 16 -11 61
-14 208 -14 l187 0 18 33 c20 39 30 186 14 213 -8 15 -10 0 -11 -66 0 -90 -12
-128 -30 -100 -5 8 -10 50 -10 93 0 44 -4 77 -10 77 -6 0 -10 -37 -10 -90 0
-73 -3 -90 -15 -90 -12 0 -15 16 -15 84 0 47 -4 88 -10 91 -6 4 -10 -27 -10
-84 0 -84 -1 -91 -20 -91 -18 0 -20 7 -22 93 -1 65 -3 74 -5 32 -5 -92 -12
-125 -28 -125 -12 0 -15 18 -15 90 0 53 -4 90 -10 90 -6 0 -10 -37 -10 -91 0
-81 -2 -90 -17 -87 -15 3 -19 18 -23 93 l-6 90 -4 -90 -5 -90 -47 -3 c-37 -2
-49 1 -56 15 -7 14 -10 340 -3 375 0 4 25 8 54 10 51 3 52 4 55 36 2 24 10 36
26 42 15 5 25 20 29 39 l7 31 84 0 85 0 3 -32 c2 -25 8 -34 25 -36 16 -2 23
-12 28 -42 7 -39 7 -39 58 -42 l52 -3 -1 -84 -1 -84 28 34 c28 34 28 35 29
177 0 80 -5 152 -10 163 -10 18 -24 19 -301 19 -266 0 -290 -1 -297 -17z"/>
<path d="M1277 1455 c-35 -48 -46 -75 -29 -75 13 1 74 99 70 112 -3 7 -21 -9
-41 -37z"/>
<path d="M1314 1398 c-44 -65 -45 -66 -35 -73 9 -5 81 90 81 107 0 19 -20 5
-46 -34z"/>
<path d="M1352 1340 c-19 -27 -32 -55 -30 -62 5 -14 77 79 78 100 0 23 -15 11
-48 -38z"/>
<path d="M1385 1278 c-36 -54 -41 -68 -26 -68 9 0 81 100 81 113 0 20 -23 1
-55 -45z"/>
<path d="M1177 1204 c-70 -100 -74 -108 -56 -147 10 -21 4 -34 -55 -117 l-66
-93 20 -31 c10 -17 23 -32 28 -34 6 -2 35 33 66 77 32 44 61 83 66 86 5 3 20
-1 33 -9 23 -15 24 -14 90 79 37 52 67 100 67 108 0 12 -115 177 -123 177 -2
0 -33 -43 -70 -96z"/>
<path d="M1425 1234 c-34 -45 -44 -74 -26 -74 8 0 46 52 70 98 21 39 -6 24
-44 -24z"/>
<path d="M1466 1180 c-20 -28 -36 -55 -36 -60 0 -21 16 -8 46 38 43 64 47 72
36 72 -6 0 -26 -23 -46 -50z"/>
<path d="M1499 1118 c-24 -34 -47 -67 -51 -72 -5 -7 -13 -3 -23 12 -9 12 -19
22 -24 22 -4 0 -42 -50 -85 -111 l-78 -110 -23 21 c-20 19 -23 19 -35 5 -11
-14 -6 -26 37 -88 28 -40 56 -72 62 -72 6 0 70 83 142 185 176 248 163 224
147 249 -7 12 -16 21 -19 21 -3 0 -26 -28 -50 -62z"/>
<path d="M887 1152 c-8 -9 -40 -68 -71 -130 l-55 -114 61 -88 c52 -75 59 -91
48 -104 -7 -9 -15 -16 -19 -16 -4 0 -31 34 -61 76 l-54 75 -14 -27 c-13 -24
-12 -29 15 -68 54 -76 73 -114 67 -130 -11 -29 -31 -17 -75 43 -33 45 -47 57
-56 49 -20 -16 -16 -30 27 -97 43 -67 47 -82 26 -100 -11 -9 -21 -2 -51 39
-21 28 -42 49 -49 47 -24 -8 -16 -53 18 -101 28 -38 33 -53 26 -67 -18 -32
-26 -29 -59 16 -36 50 -47 55 -56 25 -5 -14 4 -37 25 -70 36 -56 35 -63 -32
-126 -69 -66 -86 -74 -153 -74 -95 0 -164 55 -220 175 -45 96 -59 175 -52 298
5 103 23 171 66 255 17 34 21 57 19 110 l-3 67 -49 -78 c-90 -145 -136 -295
-136 -453 0 -217 97 -418 249 -516 40 -25 54 -28 131 -28 69 0 93 4 127 23 50
26 95 66 144 126 l36 44 29 -42 c31 -44 45 -49 64 -26 11 13 7 24 -23 67 -28
40 -34 56 -26 70 15 27 24 23 64 -32 36 -49 38 -50 56 -34 21 19 23 13 -37
103 -17 26 -21 39 -13 53 5 10 14 18 18 18 5 0 27 -25 50 -55 44 -59 52 -63
70 -41 9 11 2 28 -34 80 -25 36 -45 72 -45 80 0 19 30 42 38 30 55 -81 97
-134 105 -131 6 2 15 10 20 19 8 12 -3 34 -46 95 -55 78 -55 79 -38 102 l18
23 57 -81 c32 -44 61 -81 66 -81 18 0 180 167 180 184 0 15 -124 206 -134 206
-2 0 -27 -34 -56 -75 -29 -41 -54 -75 -56 -75 -4 0 -94 128 -94 135 0 3 23 38
50 77 28 39 50 75 50 81 0 10 -116 173 -129 181 -5 3 -15 -2 -24 -12z"/>
</g>
</svg>
