<?xml version="1.0" encoding="UTF-8" standalone="no" ?>
<!DOCTYPE svg PUBLIC "-//W3C//DTD SVG 1.1//EN" "http://www.w3.org/Graphics/SVG/1.1/DTD/svg11.dtd">
<svg xmlns="http://www.w3.org/2000/svg" xmlns:xlink="http://www.w3.org/1999/xlink" version="1.1" width="210" height="210" viewBox="0 0 210 210" xml:space="preserve">
<desc>Created with Fabric.js 5.2.4</desc>
<defs>
</defs>
<g transform="matrix(1 0 0 1 105 105)" id="306972ce-a3c3-4d66-bc34-a7662d94bf49"  >
<rect style="stroke: none; stroke-width: 1; stroke-dasharray: none; stroke-linecap: butt; stroke-dashoffset: 0; stroke-linejoin: miter; stroke-miterlimit: 4; fill: rgb(255,255,255); fill-rule: nonzero; opacity: 1; visibility: hidden;" vector-effect="non-scaling-stroke"  x="-105" y="-105" rx="0" ry="0" width="210" height="210" />
</g>
<g transform="matrix(Infinity NaN NaN Infinity 0 0)" id="689d7050-e3ce-417c-a419-8b322902b30b"  >
</g>
<g transform="matrix(1 0 0 1 105 105)"  >
<g style="" vector-effect="non-scaling-stroke"   >
		<g transform="matrix(0.13 0 0 -0.13 43.8 -65.33)"  >
<path style="stroke: none; stroke-width: 1; stroke-dasharray: none; stroke-linecap: butt; stroke-dashoffset: 0; stroke-linejoin: miter; stroke-miterlimit: 4; fill: rgb(88,21,6); fill-rule: nonzero; opacity: 1;" vector-effect="non-scaling-stroke"  transform=" translate(-1126.82, -1298.62)" d="M 1243 1568 C 1193 1504 967 1172 967 1163 C 967 1144 1053 1021 1066 1020 C 1082 1020 1090 1044 1079 1061 C 1061 1089 1071 1115 1140 1211 C 1179 1265 1213 1316 1216 1324 C 1219 1332 1214 1350 1205 1364 C 1189 1389 1189 1391 1241 1465 C 1283 1525 1292 1544 1284 1557 C 1270 1580 1255 1583 1243 1568 z" stroke-linecap="round" />
</g>
		<g transform="matrix(0.13 0 0 -0.13 -30.11 -52.85)"  >
<path style="stroke: none; stroke-width: 1; stroke-dasharray: none; stroke-linecap: butt; stroke-dashoffset: 0; stroke-linejoin: miter; stroke-miterlimit: 4; fill: rgb(88,21,6); fill-rule: nonzero; opacity: 1;" vector-effect="non-scaling-stroke"  transform=" translate(-572.5, -1205)" d="M 272 1533 C 268 1523 265 1374 265 1202 C 265 903 266 888 284 874 C 300 863 345 860 492 860 L 679 860 L 697 893 C 717 932 727 1079 711 1106 C 703 1121 701 1106 700 1040 C 700 950 688 912 670 940 C 665 948 660 990 660 1033 C 660 1077 656 1110 650 1110 C 644 1110 640 1073 640 1020 C 640 947 637 930 625 930 C 613 930 610 946 610 1014 C 610 1061 606 1102 600 1105 C 594 1109 590 1078 590 1021 C 590 937 589 930 570 930 C 552 930 550 937 548 1023 C 547 1088 545 1097 543 1055 C 538 963 531 930 515 930 C 503 930 500 948 500 1020 C 500 1073 496 1110 490 1110 C 484 1110 480 1073 480 1019 C 480 938 478 929 463 932 C 448 935 444 950 440 1025 L 434 1115 L 430 1025 L 425 935 L 378 932 C 341 930 329 933 322 947 C 315 961 312 1287 319 1322 C 319 1326 344 1330 373 1332 C 424 1335 425 1336 428 1368 C 430 1392 438 1404 454 1410 C 469 1415 479 1430 483 1449 L 490 1480 L 574 1480 L 659 1480 L 662 1448 C 664 1423 670 1414 687 1412 C 703 1410 710 1400 715 1370 C 722 1331 722 1331 773 1328 L 825 1325 L 824 1241 L 823 1157 L 851 1191 C 879 1225 879 1226 880 1368 C 880 1448 875 1520 870 1531 C 860 1549 846 1550 569 1550 C 303 1550 279 1549 272 1533 z" stroke-linecap="round" />
</g>
		<g transform="matrix(0.13 0 0 -0.13 64.11 -83.76)"  >
<path style="stroke: none; stroke-width: 1; stroke-dasharray: none; stroke-linecap: butt; stroke-dashoffset: 0; stroke-linejoin: miter; stroke-miterlimit: 4; fill: rgb(88,21,6); fill-rule: nonzero; opacity: 1;" vector-effect="non-scaling-stroke"  transform=" translate(-1279.17, -1436.82)" d="M 1277 1455 C 1242 1407 1231 1380 1248 1380 C 1261 1381 1322 1479 1318 1492 C 1315 1499 1297 1483 1277 1455 z" stroke-linecap="round" />
</g>
		<g transform="matrix(0.13 0 0 -0.13 69.14 -76.53)"  >
<path style="stroke: none; stroke-width: 1; stroke-dasharray: none; stroke-linecap: butt; stroke-dashoffset: 0; stroke-linejoin: miter; stroke-miterlimit: 4; fill: rgb(88,21,6); fill-rule: nonzero; opacity: 1;" vector-effect="non-scaling-stroke"  transform=" translate(-1316.91, -1382.61)" d="M 1314 1398 C 1270 1333 1269 1332 1279 1325 C 1288 1320 1360 1415 1360 1432 C 1360 1451 1340 1437 1314 1398 z" stroke-linecap="round" />
</g>
		<g transform="matrix(0.13 0 0 -0.13 75.01 -69.91)"  >
<path style="stroke: none; stroke-width: 1; stroke-dasharray: none; stroke-linecap: butt; stroke-dashoffset: 0; stroke-linejoin: miter; stroke-miterlimit: 4; fill: rgb(88,21,6); fill-rule: nonzero; opacity: 1;" vector-effect="non-scaling-stroke"  transform=" translate(-1360.9, -1332.92)" d="M 1352 1340 C 1333 1313 1320 1285 1322 1278 C 1327 1264 1399 1357 1400 1378 C 1400 1401 1385 1389 1352 1340 z" stroke-linecap="round" />
</g>
		<g transform="matrix(0.13 0 0 -0.13 79.63 -61.58)"  >
<path style="stroke: none; stroke-width: 1; stroke-dasharray: none; stroke-linecap: butt; stroke-dashoffset: 0; stroke-linejoin: miter; stroke-miterlimit: 4; fill: rgb(88,21,6); fill-rule: nonzero; opacity: 1;" vector-effect="non-scaling-stroke"  transform=" translate(-1395.53, -1270.45)" d="M 1385 1278 C 1349 1224 1344 1210 1359 1210 C 1368 1210 1440 1310 1440 1323 C 1440 1343 1417 1324 1385 1278 z" stroke-linecap="round" />
</g>
		<g transform="matrix(0.13 0 0 -0.13 51.56 -30.98)"  >
<path style="stroke: none; stroke-width: 1; stroke-dasharray: none; stroke-linecap: butt; stroke-dashoffset: 0; stroke-linejoin: miter; stroke-miterlimit: 4; fill: rgb(88,21,6); fill-rule: nonzero; opacity: 1;" vector-effect="non-scaling-stroke"  transform=" translate(-1185, -1040.96)" d="M 1177 1204 C 1107 1104 1103 1096 1121 1057 C 1131 1036 1125 1023 1066 940 L 1000 847 L 1020 816 C 1030 799 1043 784 1048 782 C 1054 780 1083 815 1114 859 C 1146 903 1175 942 1180 945 C 1185 948 1200 944 1213 936 C 1236 921 1237 922 1303 1015 C 1340 1067 1370 1115 1370 1123 C 1370 1135 1255 1300 1247 1300 C 1245 1300 1214 1257 1177 1204 z" stroke-linecap="round" />
</g>
		<g transform="matrix(0.13 0 0 -0.13 84.66 -54.87)"  >
<path style="stroke: none; stroke-width: 1; stroke-dasharray: none; stroke-linecap: butt; stroke-dashoffset: 0; stroke-linejoin: miter; stroke-miterlimit: 4; fill: rgb(88,21,6); fill-rule: nonzero; opacity: 1;" vector-effect="non-scaling-stroke"  transform=" translate(-1433.26, -1220.12)" d="M 1425 1234 C 1391 1189 1381 1160 1399 1160 C 1407 1160 1445 1212 1469 1258 C 1490 1297 1463 1282 1425 1234 z" stroke-linecap="round" />
</g>
		<g transform="matrix(0.13 0 0 -0.13 90.04 -48.2)"  >
<path style="stroke: none; stroke-width: 1; stroke-dasharray: none; stroke-linecap: butt; stroke-dashoffset: 0; stroke-linejoin: miter; stroke-miterlimit: 4; fill: rgb(88,21,6); fill-rule: nonzero; opacity: 1;" vector-effect="non-scaling-stroke"  transform=" translate(-1473.6, -1170.12)" d="M 1466 1180 C 1446 1152 1430 1125 1430 1120 C 1430 1099 1446 1112 1476 1158 C 1519 1222 1523 1230 1512 1230 C 1506 1230 1486 1207 1466 1180 z" stroke-linecap="round" />
</g>
		<g transform="matrix(0.13 0 0 -0.13 77 -19.18)"  >
<path style="stroke: none; stroke-width: 1; stroke-dasharray: none; stroke-linecap: butt; stroke-dashoffset: 0; stroke-linejoin: miter; stroke-miterlimit: 4; fill: rgb(88,21,6); fill-rule: nonzero; opacity: 1;" vector-effect="non-scaling-stroke"  transform=" translate(-1375.83, -952.5)" d="M 1499 1118 C 1475 1084 1452 1051 1448 1046 C 1443 1039 1435 1043 1425 1058 C 1416 1070 1406 1080 1401 1080 C 1397 1080 1359 1030 1316 969 L 1238 859 L 1215 880 C 1195 899 1192 899 1180 885 C 1169 871 1174 859 1217 797 C 1245 757 1273 725 1279 725 C 1285 725 1349 808 1421 910 C 1597 1158 1584 1134 1568 1159 C 1561 1171 1552 1180 1549 1180 C 1546 1180 1523 1152 1499 1118 z" stroke-linecap="round" />
</g>
		<g transform="matrix(0.13 0 0 -0.13 -19.78 27.49)"  >
<path style="stroke: none; stroke-width: 1; stroke-dasharray: none; stroke-linecap: butt; stroke-dashoffset: 0; stroke-linejoin: miter; stroke-miterlimit: 4; fill: rgb(88,21,6); fill-rule: nonzero; opacity: 1;" vector-effect="non-scaling-stroke"  transform=" translate(-650, -602.43)" d="M 887 1152 C 879 1143 847 1084 816 1022 L 761 908 L 822 820 C 874 745 881 729 870 716 C 863 707 855 700 851 700 C 847 700 820 734 790 776 L 736 851 L 722 824 C 709 800 710 795 737 756 C 791 680 810 642 804 626 C 793 597 773 609 729 669 C 696 714 682 726 673 718 C 653 702 657 688 700 621 C 743 554 747 539 726 521 C 715 512 705 519 675 560 C 654 588 633 609 626 607 C 602 599 610 554 644 506 C 672 468 677 453 670 439 C 652 407 644 410 611 455 C 575 505 564 510 555 480 C 550 466 559 443 580 410 C 616 354 615 347 548 284 C 479 218 462 210 395 210 C 300 210 231 265 175 385 C 130 481 116 560 123 683 C 128 786 146 854 189 938 C 206 972 210 995 208 1048 L 205 1115 L 156 1037 C 66 892 20 742 20 584 C 20 367 117 166 269 68 C 309 43 323 40 400 40 C 469 40 493 44 527 63 C 577 89 622 129 671 189 L 707 233 L 736 191 C 767 147 781 142 800 165 C 811 178 807 189 777 232 C 749 272 743 288 751 302 C 766 329 775 325 815 270 C 851 221 853 220 871 236 C 892 255 894 249 834 339 C 817 365 813 378 821 392 C 826 402 835 410 839 410 C 844 410 866 385 889 355 C 933 296 941 292 959 314 C 968 325 961 342 925 394 C 900 430 880 466 880 474 C 880 493 910 516 918 504 C 973 423 1015 370 1023 373 C 1029 375 1038 383 1043 392 C 1051 404 1040 426 997 487 C 942 565 942 566 959 589 L 977 612 L 1034 531 C 1066 487 1095 450 1100 450 C 1118 450 1280 617 1280 634 C 1280 649 1156 840 1146 840 C 1144 840 1119 806 1090 765 C 1061 724 1036 690 1034 690 C 1030 690 940 818 940 825 C 940 828 963 863 990 902 C 1018 941 1040 977 1040 983 C 1040 993 924 1156 911 1164 C 906 1167 896 1162 887 1152 z" stroke-linecap="round" />
</g>
</g>
</g>
<g transform="matrix(NaN NaN NaN NaN 0 0)"  >
<g style=""   >
</g>
</g>
</svg>