<?xml version="1.0" standalone="no"?>
<!DOCTYPE svg PUBLIC "-//W3C//DTD SVG 20010904//EN"
 "http://www.w3.org/TR/2001/REC-SVG-20010904/DTD/svg10.dtd">
<svg version="1.0" xmlns="http://www.w3.org/2000/svg"
 width="898.000000pt" height="105.000000pt" viewBox="0 0 898.000000 105.000000"
 preserveAspectRatio="xMidYMid meet">

<g transform="translate(0.000000,105.000000) scale(0.100000,-0.100000)"
fill="#000000" stroke="none">
<path d="M130 520 l0 -360 295 0 295 0 0 105 0 105 -190 0 -190 0 0 45 0 45
190 0 190 0 0 80 0 80 -190 0 -190 0 0 50 0 50 190 0 190 0 0 80 0 80 -295 0
-295 0 0 -360z"/>
<path d="M790 520 l0 -360 108 0 107 0 178 215 178 214 -3 141 -3 141 -170
-205 c-93 -113 -173 -206 -177 -206 -5 0 -8 95 -8 210 l0 210 -105 0 -105 0 0
-360z"/>
<path d="M1430 520 l0 -360 105 0 105 0 0 360 0 360 -105 0 -105 0 0 -360z"/>
<path d="M1720 520 l0 -360 289 0 289 0 47 133 c26 72 57 158 67 189 l20 58
-67 170 -67 170 -289 0 -289 0 0 -360z m497 106 l33 -89 -31 -83 -32 -84 -128
0 -129 0 0 175 0 176 126 -3 127 -3 34 -89z"/>
<path d="M2500 520 l0 -360 290 0 290 0 0 105 0 105 -185 0 -185 0 0 45 0 45
185 0 185 0 0 80 0 80 -185 0 -185 0 0 50 0 50 185 0 185 0 0 80 0 80 -290 0
-290 0 0 -360z"/>
<path d="M3160 520 l0 -360 105 0 105 0 2 206 3 205 139 -205 139 -206 84 0
83 0 0 360 0 360 -85 0 -85 0 -2 -201 -3 -201 -135 201 -135 200 -107 1 -108
0 0 -360z"/>
<path d="M3890 520 l0 -360 285 0 285 0 0 105 0 105 -180 0 -180 0 0 175 0
175 180 0 180 0 0 80 0 80 -285 0 -285 0 0 -360z"/>
<path d="M4540 520 l0 -360 295 0 295 0 0 105 0 105 -190 0 -190 0 0 45 0 45
190 0 190 0 0 80 0 80 -190 0 -190 0 0 50 0 50 190 0 190 0 0 80 0 80 -295 0
-295 0 0 -360z"/>
<path d="M5570 800 l0 -80 115 0 115 0 0 -280 0 -280 100 0 100 0 0 280 0 280
120 0 120 0 0 80 0 80 -335 0 -335 0 0 -80z"/>
<path d="M6300 520 l0 -360 285 0 285 0 0 105 0 105 -180 0 -180 0 0 175 0
175 180 0 180 0 0 80 0 80 -285 0 -285 0 0 -360z"/>
<path d="M6950 520 l0 -360 105 0 105 0 0 110 0 110 215 0 215 0 0 250 0 250
-320 0 -320 0 0 -360z m480 110 l0 -90 -135 0 -135 0 0 90 0 90 135 0 135 0 0
-90z"/>
<path d="M7930 520 l0 -360 105 0 105 0 0 360 0 360 -105 0 -105 0 0 -360z"/>
<path d="M8220 520 l0 -360 105 0 105 0 0 110 0 110 210 0 210 0 0 250 0 250
-315 0 -315 0 0 -360z m470 110 l0 -90 -130 0 -130 0 0 90 0 90 130 0 130 0 0
-90z"/>
<path d="M7795 848 c-7 -21 -165 -680 -165 -690 0 -5 21 -8 47 -6 l46 3 83
340 c46 187 83 346 84 353 0 8 -15 12 -45 12 -28 0 -47 -5 -50 -12z"/>
</g>
</svg>
