<?xml version="1.0" standalone="no"?>
<!DOCTYPE svg PUBLIC "-//W3C//DTD SVG 20010904//EN"
 "http://www.w3.org/TR/2001/REC-SVG-20010904/DTD/svg10.dtd">
<svg version="1.0" xmlns="http://www.w3.org/2000/svg"
 width="1224.000000pt" height="224.000000pt" viewBox="0 0 1224.000000 224.000000"
 preserveAspectRatio="xMidYMid meet">

<g transform="translate(0.000000,224.000000) scale(0.100000,-0.100000)"
fill="#000000" stroke="none">
<path d="M11098 2122 l-188 -15 0 -54 0 -53 -239 0 c-191 0 -241 -3 -250 -14
-6 -7 -80 -310 -165 -672 l-153 -659 -4542 -3 -4541 -2 0 100 0 100 -345 0
-345 0 0 -285 0 -285 345 0 345 0 0 105 0 105 4615 0 4615 0 0 24 c0 19 278
1249 296 1309 5 15 23 17 185 17 l179 0 0 -55 c0 -53 1 -55 28 -55 15 0 104
-7 197 -15 230 -20 335 -20 335 0 0 13 27 15 180 15 l180 0 0 190 0 190 -180
0 c-153 0 -180 2 -180 15 0 19 -107 18 -372 -3z m332 -82 l0 -70 -100 0 -100
0 0 -50 0 -50 100 0 100 0 0 -70 0 -70 -32 0 c-18 0 -126 7 -240 17 l-208 17
0 156 0 157 188 15 c103 8 211 16 240 16 l52 2 0 -70z m370 -120 l0 -150 -165
0 -165 0 0 30 0 29 83 3 82 3 3 83 3 82 -86 0 -85 0 0 35 0 35 165 0 165 0 0
-150z m-890 0 l0 -50 -184 0 c-146 0 -186 -3 -195 -14 -7 -8 -80 -312 -164
-675 l-152 -661 -4597 0 -4598 0 0 50 0 50 4553 0 4553 0 148 638 c81 350 152
654 157 675 l10 37 234 0 235 0 0 -50z m690 0 l0 -50 -65 0 c-51 0 -65 3 -65
15 0 12 -18 15 -100 15 -93 0 -100 1 -100 20 0 19 7 20 100 20 82 0 100 3 100
15 0 12 14 15 65 15 l65 0 0 -50z m-10620 -1355 l0 -245 -305 0 -305 0 0 245
0 245 305 0 305 0 0 -245z"/>
<path d="M11060 2026 c0 -30 4 -36 21 -36 17 0 20 5 17 32 -2 22 -9 34 -20 36
-15 3 -18 -4 -18 -32z"/>
<path d="M11130 2025 c0 -28 4 -35 20 -35 16 0 20 7 20 35 0 28 -4 35 -20 35
-16 0 -20 -7 -20 -35z"/>
<path d="M10990 2005 c0 -8 9 -15 20 -15 11 0 20 7 20 15 0 8 -9 15 -20 15
-11 0 -20 -7 -20 -15z"/>
<path d="M10990 1835 c0 -8 9 -15 20 -15 11 0 20 7 20 15 0 8 -9 15 -20 15
-11 0 -20 -7 -20 -15z"/>
<path d="M11060 1815 c0 -28 4 -35 20 -35 16 0 20 7 20 35 0 28 -4 35 -20 35
-16 0 -20 -7 -20 -35z"/>
<path d="M11130 1815 c0 -28 4 -35 20 -35 16 0 20 7 20 35 0 28 -4 35 -20 35
-16 0 -20 -7 -20 -35z"/>
<path d="M11680 2019 c0 -17 5 -20 37 -17 27 2 39 8 41 21 3 14 -4 17 -37 17
-35 0 -41 -3 -41 -21z"/>
<path d="M11680 1955 c0 -11 11 -15 40 -15 29 0 40 4 40 15 0 11 -11 15 -40
15 -29 0 -40 -4 -40 -15z"/>
<path d="M11680 1885 c0 -11 11 -15 40 -15 29 0 40 4 40 15 0 11 -11 15 -40
15 -29 0 -40 -4 -40 -15z"/>
<path d="M11680 1815 c0 -11 11 -15 40 -15 29 0 40 4 40 15 0 11 -11 15 -40
15 -29 0 -40 -4 -40 -15z"/>
<path d="M570 740 c0 -28 -2 -30 -40 -30 -39 0 -40 -1 -40 -35 0 -34 -1 -35
-40 -35 l-40 0 0 -140 0 -140 265 0 265 0 0 140 0 140 -40 0 c-39 0 -40 1 -40
35 0 34 -1 35 -40 35 -38 0 -40 2 -40 30 l0 30 -105 0 -105 0 0 -30z m170 -35
c0 -22 4 -25 40 -25 l40 0 0 -40 0 -40 40 0 40 0 0 -105 0 -105 -225 0 -225 0
0 105 0 105 40 0 40 0 0 40 0 40 40 0 c36 0 40 3 40 25 0 24 2 25 65 25 63 0
65 -1 65 -25z"/>
<path d="M780 489 c0 -52 2 -59 20 -59 18 0 20 7 20 54 0 45 -3 54 -20 59 -18
5 -20 0 -20 -54z"/>
<path d="M530 485 c0 -48 2 -55 20 -55 18 0 20 7 20 55 0 48 -2 55 -20 55 -18
0 -20 -7 -20 -55z"/>
<path d="M620 485 c0 -42 3 -55 15 -55 12 0 15 13 15 55 0 42 -3 55 -15 55
-12 0 -15 -13 -15 -55z"/>
<path d="M700 484 c0 -47 3 -55 18 -52 13 2 18 15 20 56 3 47 1 52 -17 52 -19
0 -21 -6 -21 -56z"/>
<path d="M460 1616 c-79 -40 -93 -72 -150 -339 -27 -131 -50 -250 -50 -263 0
-51 49 -106 110 -124 22 -7 151 -10 360 -8 l324 3 32 100 c41 129 39 133 -77
105 -94 -24 -262 -36 -333 -26 -42 7 -46 9 -46 36 0 63 -11 60 259 60 l248 0
32 157 c41 195 39 222 -23 280 l-45 43 -298 0 c-291 -1 -299 -1 -343 -24z
m671 -25 c23 -23 29 -38 29 -70 0 -34 -25 -169 -55 -298 -5 -23 -6 -23 -253
-25 l-247 -3 -9 -49 c-9 -46 -8 -50 16 -71 47 -41 251 -41 406 -1 28 8 52 13
52 11 0 -2 -11 -40 -26 -85 l-25 -81 -344 3 -343 3 -26 24 c-20 19 -26 34 -26
68 0 55 85 456 107 507 12 26 33 49 62 68 l45 28 304 0 304 0 29 -29z"/>
<path d="M739 1490 c-26 -3 -54 -11 -62 -18 -13 -11 -37 -90 -37 -122 0 -6 50
-10 119 -10 133 0 126 -4 137 78 5 43 4 49 -18 59 -31 15 -84 20 -139 13z
m127 -38 c19 -7 20 -10 10 -52 l-11 -45 -87 -3 c-97 -3 -102 1 -78 62 14 37
103 57 166 38z"/>
<path d="M2190 1633 c0 -5 -78 -7 -173 -5 l-173 3 -11 -43 c-11 -38 -170 -298
-183 -298 -3 0 -21 62 -39 138 -18 75 -40 152 -48 170 l-15 32 -169 0 c-93 0
-169 -4 -169 -9 0 -5 13 -37 29 -72 32 -69 141 -533 141 -598 0 -20 5 -42 12
-49 8 -8 65 -12 193 -12 l180 1 28 62 c38 84 411 645 415 624 2 -9 -24 -145
-57 -301 -34 -157 -61 -287 -61 -290 0 -3 -13 -21 -30 -39 -26 -30 -28 -36
-15 -47 11 -9 149 -12 577 -13 552 -2 564 -1 608 19 25 12 58 35 74 53 l29 31
18 -29 c10 -16 38 -41 62 -55 l44 -26 334 2 334 3 32 90 c35 100 36 104 24
124 -7 11 -24 9 -97 -10 -70 -18 -118 -23 -226 -23 -79 -1 -141 3 -147 9 -5 6
-7 25 -2 45 l7 35 247 3 246 2 10 38 c5 20 22 96 37 169 l27 132 -24 48 c-13
26 -39 58 -58 70 -33 23 -40 23 -328 23 -269 0 -297 -2 -331 -19 -53 -27 -89
-66 -105 -114 l-14 -42 -15 35 c-23 51 -92 117 -135 129 -50 14 -653 15 -653
1 0 -6 115 -10 324 -10 319 0 323 0 357 -23 42 -28 76 -79 85 -126 8 -37 -44
-321 -73 -406 -20 -58 -78 -113 -137 -130 -69 -21 -686 -22 -686 -2 0 7 4 17
9 23 11 10 131 570 131 609 0 14 -4 25 -9 25 -5 0 -11 10 -13 23 -3 22 -4 22
-210 25 -115 1 -208 -1 -208 -5z m-651 -50 c5 -21 26 -107 47 -190 21 -84 42
-153 46 -153 12 0 167 240 201 312 l32 68 148 0 148 0 -12 -22 c-7 -13 -91
-140 -187 -283 -95 -143 -187 -288 -202 -322 l-29 -63 -171 0 c-164 0 -171 1
-165 19 9 30 -108 538 -139 599 -14 28 -26 56 -26 62 0 6 53 10 150 10 l149 0
10 -37z m1022 10 c-24 -33 -145 -589 -139 -634 l5 -29 -180 0 c-177 0 -180 0
-163 19 27 30 150 607 137 644 l-9 27 184 0 185 0 -20 -27z m1636 12 c12 -8
27 -31 33 -51 11 -32 8 -57 -21 -195 l-33 -159 -248 0 -248 0 -6 -23 c-3 -13
-4 -41 -2 -63 5 -58 34 -69 183 -67 105 0 193 13 277 39 15 4 13 -6 -11 -78
l-28 -83 -332 -3 c-456 -3 -434 -20 -372 278 22 107 45 221 51 252 14 70 44
116 95 145 39 22 48 23 340 23 251 0 304 -2 322 -15z m-1580 -57 c-3 -13 -31
-142 -62 -288 -52 -252 -85 -362 -97 -329 -7 18 119 608 133 626 18 20 32 15
26 -9z"/>
<path d="M3813 1490 c-53 -8 -70 -23 -84 -74 -5 -22 -12 -49 -15 -58 -5 -16 5
-18 118 -18 l124 0 11 53 c16 77 7 88 -82 100 -16 2 -49 1 -72 -3z m125 -36
c20 -6 22 -11 17 -38 -14 -70 -8 -66 -106 -66 l-91 0 7 33 c13 57 35 72 120
75 17 1 40 -1 53 -4z"/>
<path d="M4350 1635 c0 -3 7 -16 15 -29 14 -21 10 -47 -49 -326 -60 -284 -66
-304 -95 -334 -50 -52 -36 -56 200 -56 l207 0 -10 28 c-9 23 -3 68 33 240 24
117 47 211 50 209 18 -6 289 -341 289 -356 0 -9 -16 -36 -34 -58 -26 -30 -32
-43 -23 -52 7 -7 80 -11 235 -11 210 0 224 1 217 18 -4 9 -9 24 -11 32 -3 8
22 143 56 299 33 156 60 288 60 292 0 5 14 24 31 44 55 62 47 65 -193 65 -117
0 -219 -4 -226 -9 -10 -6 -10 -13 -2 -32 9 -19 5 -54 -20 -168 -16 -80 -32
-146 -33 -148 -2 -2 -71 78 -153 177 l-149 180 -197 0 c-109 0 -198 -2 -198
-5z m541 -197 c84 -101 154 -185 156 -187 7 -10 14 14 48 168 26 122 32 167
25 182 -10 18 -6 19 180 19 l191 0 -19 -27 c-23 -34 -146 -613 -137 -643 6
-19 1 -20 -178 -20 l-185 0 19 37 c10 21 19 43 19 49 0 12 -325 406 -339 412
-11 4 -104 -454 -96 -477 6 -21 5 -21 -165 -21 l-171 0 16 28 c23 40 143 616
133 641 -7 21 -5 21 172 21 l179 0 152 -182z"/>
<path d="M5604 1621 c-44 -27 -72 -66 -89 -125 -26 -91 -95 -427 -95 -463 0
-60 23 -89 100 -126 42 -20 64 -21 308 -25 144 -2 283 -1 308 3 57 8 109 53
140 120 l24 50 0 -38 c0 -52 11 -69 66 -106 l47 -31 338 0 337 0 31 93 c48
144 46 148 -74 117 -90 -24 -257 -36 -329 -26 l-47 7 3 42 3 42 250 3 250 2
34 165 c40 193 37 219 -29 279 l-40 36 -297 0 c-277 0 -299 -1 -338 -20 -57
-27 -84 -60 -106 -122 l-18 -53 -1 48 c0 54 -10 79 -48 120 l-26 27 -335 0
c-311 0 -338 -1 -367 -19z m711 -16 c21 -21 25 -33 25 -89 0 -36 -5 -88 -11
-116 l-11 -50 -145 0 -146 0 6 36 c3 19 2 46 -3 58 -8 21 -16 24 -97 28 -60 4
-92 2 -101 -6 -16 -15 -88 -366 -79 -388 5 -15 20 -18 91 -18 98 0 107 7 127
97 l12 53 154 0 153 0 -6 -27 c-32 -145 -67 -214 -124 -243 -36 -19 -59 -20
-307 -20 -285 1 -340 6 -382 37 -41 31 -39 87 13 332 51 237 70 283 131 318
39 22 46 23 358 23 l318 0 24 -25z m850 -8 c40 -34 41 -81 6 -245 -17 -78 -31
-145 -31 -147 0 -3 -110 -5 -245 -5 l-245 0 -10 -26 c-14 -35 -12 -77 3 -98
30 -40 255 -42 407 -2 30 8 56 13 57 12 1 -1 -10 -39 -24 -84 l-27 -82 -337 0
-337 0 -31 26 c-43 36 -41 71 15 339 73 349 52 334 471 335 299 0 302 0 328
-23z m-1149 -208 c-11 -78 -9 -79 176 -79 l160 0 -7 -47 c-8 -57 -17 -69 -35
-48 -10 12 -41 15 -175 15 l-163 0 -11 -48 c-21 -102 -22 -102 -101 -102 -39
0 -70 4 -70 10 0 20 61 306 70 328 9 20 16 22 86 22 l77 0 -7 -51z"/>
<path d="M6777 1490 c-59 -7 -72 -20 -90 -92 l-15 -58 123 0 124 0 11 56 c11
51 10 58 -7 74 -21 21 -79 28 -146 20z m140 -43 c3 -4 2 -26 -3 -49 l-9 -43
-93 -3 -93 -3 7 28 c10 45 32 71 61 76 36 6 121 2 130 -6z"/>
<path d="M8485 1628 c-35 -19 -66 -52 -85 -88 -23 -46 -110 -451 -110 -514 0
-42 4 -52 35 -81 20 -17 52 -38 73 -45 41 -14 532 -27 608 -15 85 12 144 93
177 240 24 105 24 105 -179 105 l-164 0 -6 -27 c-28 -125 -26 -123 -105 -123
-48 0 -69 4 -69 13 -1 28 64 323 73 335 7 9 32 12 81 10 l71 -3 -3 -57 c-4
-71 -9 -70 193 -66 l149 3 13 60 c25 123 12 201 -42 243 -27 22 -34 22 -359
22 -223 -1 -338 -4 -351 -12z m680 -4 c42 -17 56 -106 34 -217 l-12 -57 -143
0 -144 0 0 55 c0 36 -4 57 -12 60 -26 7 -176 13 -186 6 -14 -9 -84 -336 -80
-376 l3 -30 87 -3 c81 -3 88 -1 102 20 8 13 20 47 26 76 l12 52 153 0 152 0
-8 -47 c-23 -120 -64 -194 -126 -224 -41 -20 -56 -20 -335 -17 -431 5 -416
-10 -339 353 51 236 63 276 97 307 52 47 62 48 391 48 171 0 319 -3 328 -6z"/>
<path d="M9290 1588 c0 -29 -27 -178 -59 -331 -57 -268 -60 -280 -92 -313 -28
-29 -31 -36 -19 -44 8 -5 102 -10 207 -10 l193 0 -11 27 c-5 14 -7 46 -3 70 5
36 9 43 23 36 9 -4 93 -8 186 -8 155 0 174 2 216 23 80 39 94 70 149 330 16
78 30 151 30 162 0 11 -19 40 -43 65 l-44 45 -366 0 -367 0 0 -52z m757 8 c30
-35 30 -42 -21 -272 -57 -254 -71 -266 -328 -272 -166 -4 -167 -4 -191 20
l-24 24 -11 -60 c-6 -34 -9 -71 -6 -83 l6 -23 -163 0 -162 0 20 23 c28 30 146
583 137 640 l-7 38 363 -3 362 -3 25 -29z"/>
<path d="M9637 1518 c-24 -6 -42 -19 -47 -32 -16 -39 -62 -285 -56 -301 7 -20
158 -22 174 -2 9 11 72 281 72 309 0 11 -64 38 -87 37 -10 -1 -35 -6 -56 -11z
m118 -40 c2 -7 -8 -74 -23 -148 l-28 -135 -67 -3 c-37 -2 -67 1 -67 5 1 4 13
66 28 137 l28 130 35 12 c45 16 89 17 94 2z"/>
<path d="M10600 1630 c0 -5 5 -20 11 -33 8 -19 -2 -82 -52 -318 -53 -255 -65
-299 -90 -330 -21 -27 -25 -39 -16 -48 8 -8 125 -11 410 -11 l398 0 -7 23 c-9
25 -9 56 0 93 5 20 11 24 24 17 22 -10 315 -11 365 0 53 11 102 59 125 120 29
76 87 368 79 397 -3 14 -22 42 -40 63 l-35 37 -586 0 c-358 0 -586 -4 -586
-10z m1158 -11 c17 -6 36 -23 45 -40 13 -28 11 -44 -20 -192 -41 -197 -49
-223 -80 -265 -43 -58 -70 -65 -259 -70 -165 -4 -172 -4 -193 17 -24 24 -24
23 -39 -50 -5 -25 -5 -55 -1 -67 l8 -22 -161 0 c-154 0 -160 1 -145 18 19 21
137 569 137 637 l0 45 339 0 c213 0 349 -4 369 -11z m-778 -6 c0 -3 -7 -14
-15 -23 -23 -25 -147 -618 -134 -641 9 -18 2 -19 -171 -19 l-180 0 16 25 c24
37 144 613 133 642 l-9 23 180 0 c99 0 180 -3 180 -7z m-6 -361 c-46 -215 -63
-281 -80 -301 -12 -14 -25 -23 -29 -19 -4 4 22 142 58 308 45 212 70 307 83
321 l19 21 3 -27 c2 -14 -23 -151 -54 -303z"/>
<path d="M11384 1519 c-17 -5 -36 -15 -42 -22 -14 -17 -74 -297 -68 -314 4 -9
28 -13 84 -13 63 0 82 4 94 18 13 14 68 259 68 300 0 14 -59 43 -87 41 -10 0
-32 -5 -49 -10z m112 -43 c5 -14 -40 -258 -51 -277 -4 -5 -35 -9 -69 -9 l-64
0 28 129 c15 70 30 133 34 139 16 27 113 40 122 18z"/>
<path d="M7581 1622 c-23 -7 -27 -19 -51 -130 -26 -118 -25 -142 4 -142 5 0
22 11 36 25 25 24 34 26 96 23 l70 -3 -47 -223 c-38 -181 -52 -228 -71 -249
-23 -24 -23 -25 -4 -39 16 -11 62 -14 213 -14 106 0 193 3 193 6 0 3 -5 14
-11 25 -8 15 1 70 36 237 25 119 49 227 52 240 5 20 11 22 85 22 64 0 86 -4
108 -20 l29 -20 11 57 c7 32 18 85 26 118 10 47 11 62 1 71 -14 14 -736 28
-776 16z m726 -109 c-11 -54 -22 -100 -24 -102 -1 -2 -11 3 -21 12 -14 13 -39
17 -108 17 l-90 0 -49 -232 c-28 -128 -49 -248 -48 -265 l2 -33 -171 0 c-162
0 -170 1 -156 18 12 12 118 471 118 507 0 3 -42 5 -93 5 -69 0 -98 -4 -116
-16 -26 -19 -27 -29 6 119 l15 67 377 0 378 0 -20 -97z"/>
<path d="M2895 1468 c-4 -13 -85 -386 -85 -394 0 -2 29 -4 65 -4 77 0 125 17
142 51 20 40 65 278 59 305 -4 16 -19 30 -41 40 -43 18 -134 19 -140 2z m149
-34 c20 -8 20 -43 2 -126 -8 -35 -20 -89 -26 -121 -16 -79 -35 -97 -105 -97
-30 0 -55 4 -55 10 0 9 55 271 67 318 4 19 12 22 53 22 27 0 55 -3 64 -6z"/>
</g>
</svg>
