<?xml version="1.0" standalone="no"?>
<!DOCTYPE svg PUBLIC "-//W3C//DTD SVG 20010904//EN"
 "http://www.w3.org/TR/2001/REC-SVG-20010904/DTD/svg10.dtd">
<svg version="1.0" xmlns="http://www.w3.org/2000/svg"
 width="1100.000000pt" height="177.000000pt" viewBox="0 0 1100.000000 177.000000"
 preserveAspectRatio="xMidYMid meet">

<g transform="translate(0.000000,177.000000) scale(0.100000,-0.100000)"
fill="#000000" stroke="none">
<path d="M8967 1392 c-103 -103 -187 -192 -187 -197 0 -14 123 -135 137 -135
26 0 32 26 14 56 l-19 29 101 102 101 102 -22 24 -23 24 68 66 68 66 -25 26
-25 25 -188 -188z"/>
<path d="M7936 1529 l-26 -20 0 -270 0 -270 25 -24 24 -25 233 0 c128 0 238 4
244 8 33 23 44 58 44 144 0 72 -3 88 -15 88 -12 0 -15 -16 -15 -85 0 -69 -3
-85 -15 -85 -12 0 -15 16 -15 86 0 76 -2 85 -17 82 -15 -3 -18 -16 -21 -86 -2
-64 -6 -82 -17 -82 -12 0 -15 17 -15 85 0 69 -3 85 -15 85 -12 0 -15 -16 -15
-85 0 -78 -2 -85 -20 -85 -18 0 -20 7 -20 85 0 69 -3 85 -15 85 -12 0 -15 -16
-15 -85 0 -68 -3 -85 -15 -85 -11 0 -15 18 -17 82 -3 70 -6 83 -20 86 -16 3
-18 -6 -18 -82 0 -70 -3 -86 -15 -86 -12 0 -15 16 -15 85 0 68 -3 85 -15 85
-11 0 -15 -18 -17 -82 l-3 -83 -65 0 -65 0 -3 68 c-2 42 1 67 8 67 5 0 10 22
10 50 0 28 -4 50 -10 50 -15 0 -12 96 3 108 7 6 39 10 70 8 l57 -3 6 34 c5 28
10 33 34 33 24 0 29 5 34 35 l7 35 99 0 99 0 7 -35 c5 -30 10 -35 34 -35 24 0
29 -5 34 -34 l7 -34 57 3 c31 1 63 -2 70 -7 14 -12 17 -108 2 -108 -5 0 -10
-12 -10 -26 l0 -25 45 38 44 38 1 125 c0 69 -4 130 -8 136 -20 31 -54 34 -385
34 -323 0 -335 -1 -361 -21z"/>
<path d="M9165 1450 c-47 -47 -57 -62 -47 -72 10 -10 25 0 73 48 49 49 58 63
47 72 -11 9 -26 -1 -73 -48z"/>
<path d="M9215 1400 c-39 -40 -56 -63 -49 -70 6 -6 30 10 69 50 39 40 56 63
49 70 -6 6 -30 -10 -69 -50z"/>
<path d="M9262 1357 c-51 -52 -64 -77 -39 -77 19 0 120 107 113 119 -11 18
-19 14 -74 -42z"/>
<path d="M9312 1307 c-48 -48 -64 -77 -44 -77 14 0 123 116 116 123 -12 12
-18 8 -72 -46z"/>
<path d="M9045 1230 l-89 -90 16 -28 17 -28 -79 -79 c-44 -44 -80 -82 -80 -85
0 -11 56 -70 66 -70 5 0 45 36 89 80 l79 79 28 -17 28 -17 93 93 92 92 -80 80
c-44 44 -82 80 -85 80 -3 0 -46 -40 -95 -90z"/>
<path d="M9356 1261 c-46 -47 -54 -60 -43 -69 10 -9 25 1 71 47 46 47 54 60
43 69 -10 9 -25 -1 -71 -47z"/>
<path d="M9405 1210 c-48 -48 -57 -62 -47 -72 11 -11 24 -2 68 45 30 33 54 63
54 67 0 25 -23 13 -75 -40z"/>
<path d="M415 1236 c-16 -7 -38 -23 -48 -34 -41 -45 -46 -86 -47 -360 0 -388
-13 -373 320 -370 l225 3 0 75 0 75 -182 3 -183 2 0 75 0 75 168 2 167 3 0 80
0 80 -167 3 -168 2 0 70 0 70 183 2 182 3 0 75 0 75 -210 2 c-157 2 -218 -1
-240 -11z"/>
<path d="M920 1233 c0 -9 48 -172 106 -362 79 -258 112 -352 130 -371 23 -23
31 -25 124 -25 86 0 102 3 120 20 19 20 240 697 240 738 0 15 -11 17 -85 17
l-84 0 -40 -127 c-22 -71 -64 -206 -93 -300 -29 -95 -55 -173 -58 -173 -3 0
-46 134 -96 298 l-91 297 -87 3 c-76 2 -86 1 -86 -15z"/>
<path d="M1695 1237 c-3 -6 -4 -181 -3 -387 l3 -375 79 -3 c57 -2 82 1 87 10
10 15 12 728 3 752 -5 13 -22 16 -85 16 -55 0 -81 -4 -84 -13z"/>
<path d="M1936 1234 c-8 -20 -8 -728 0 -748 5 -14 34 -16 218 -16 225 1 258 6
314 51 17 13 43 47 59 74 l28 50 0 210 c0 201 -1 212 -24 258 -28 56 -91 113
-140 127 -20 5 -129 10 -242 10 -179 0 -208 -2 -213 -16z m407 -165 c40 -31
49 -79 46 -236 -4 -141 -4 -142 -33 -172 -30 -31 -30 -31 -138 -31 l-108 0 0
230 0 230 104 0 c89 0 107 -3 129 -21z"/>
<path d="M2705 1230 c-78 -38 -80 -47 -83 -375 -4 -406 -19 -387 320 -383
l223 3 3 54 c6 107 18 101 -188 101 l-180 0 0 75 0 75 168 2 167 3 3 74 c2 53
-1 77 -10 82 -7 5 -84 9 -170 9 l-158 0 0 70 0 70 180 0 c206 0 194 -6 188
101 l-3 54 -210 3 c-193 2 -213 1 -250 -18z"/>
<path d="M3305 1231 c-69 -31 -70 -36 -73 -396 -2 -176 0 -330 3 -343 5 -22 9
-23 88 -20 l82 3 5 280 c3 166 8 268 13 250 4 -16 35 -129 69 -250 56 -201 64
-223 95 -252 32 -31 39 -33 106 -33 83 0 113 12 144 59 23 34 23 36 23 377 l0
344 -85 0 -85 0 -2 -290 -3 -289 -64 232 c-78 286 -89 313 -135 332 -48 20
-132 18 -181 -4z"/>
<path d="M4082 1237 c-44 -14 -115 -78 -138 -124 -17 -34 -19 -63 -19 -248 0
-201 1 -212 23 -255 31 -58 58 -87 107 -113 36 -20 59 -22 223 -25 l183 -4 -3
79 -3 78 -155 3 c-211 4 -200 -8 -200 214 0 186 10 233 52 243 13 3 86 6 163
8 l140 2 3 78 3 77 -173 -1 c-95 -1 -188 -6 -206 -12z"/>
<path d="M4625 1236 c-40 -18 -73 -56 -85 -97 -6 -19 -10 -155 -10 -304 0
-383 -14 -367 322 -363 l223 3 3 54 c6 107 18 101 -188 101 l-180 0 0 75 0 75
168 2 167 3 3 74 c2 53 -1 77 -10 82 -7 5 -84 9 -170 9 l-158 0 0 70 0 70 180
0 c206 0 194 -6 188 101 l-3 54 -210 2 c-158 2 -217 -1 -240 -11z"/>
<path d="M5724 1236 c-3 -7 -4 -42 -2 -77 l3 -64 93 -3 92 -3 0 -203 c0 -112
3 -251 7 -310 l6 -107 81 3 81 3 3 307 2 307 93 3 92 3 3 78 3 77 -276 0
c-223 0 -277 -3 -281 -14z"/>
<path d="M6482 1237 c-41 -13 -117 -79 -140 -121 -14 -26 -17 -66 -20 -235 -4
-226 2 -261 61 -328 61 -69 90 -78 295 -81 l183 -4 -3 79 -3 78 -163 5 c-147
4 -165 7 -178 24 -21 29 -20 355 1 396 19 37 30 40 200 43 l140 2 3 78 3 77
-173 -1 c-95 -1 -188 -6 -206 -12z"/>
<path d="M6932 863 l3 -388 83 -3 82 -3 0 129 0 129 128 5 c145 6 182 18 229
71 40 46 55 101 55 200 0 106 -35 180 -102 217 -44 24 -52 25 -263 28 l-217 3
2 -388z m404 202 c12 -19 15 -41 12 -84 -6 -89 -12 -92 -137 -89 l-106 3 -3
98 -3 97 110 0 c107 0 111 -1 127 -25z"/>
<path d="M9655 1237 c-3 -6 -4 -181 -3 -387 l3 -375 79 -3 c57 -2 82 1 87 10
10 15 12 728 3 752 -5 13 -22 16 -85 16 -55 0 -81 -4 -84 -13z"/>
<path d="M9900 860 l0 -391 83 3 82 3 3 126 3 126 122 6 c186 8 239 38 273
155 22 73 15 192 -15 249 -25 50 -70 89 -119 103 -20 5 -126 10 -234 10 l-198
0 0 -390z m408 186 c15 -46 7 -120 -15 -141 -11 -11 -41 -15 -119 -15 l-104 0
0 100 0 101 112 -3 113 -3 13 -39z"/>
<path d="M9442 1153 l-62 -66 -25 23 -26 24 -102 -101 -102 -101 -30 19 c-27
17 -30 17 -47 2 -18 -16 -15 -20 54 -90 l73 -73 192 192 192 192 -21 23 c-12
13 -24 23 -27 23 -3 0 -34 -30 -69 -67z"/>
<path d="M8687 1187 c-15 -12 -56 -65 -91 -117 l-64 -95 76 -77 c65 -66 74
-79 62 -92 -7 -9 -18 -16 -24 -16 -6 0 -41 29 -76 65 -35 36 -67 65 -71 65 -3
0 -12 -11 -19 -25 -13 -25 -11 -28 53 -93 65 -65 67 -69 49 -85 -17 -16 -21
-13 -77 43 -33 33 -63 60 -67 60 -4 0 -15 -12 -24 -26 -17 -25 -17 -26 42 -85
55 -56 57 -60 41 -76 -16 -16 -20 -14 -72 37 -58 57 -57 57 -84 10 -7 -11 4
-28 40 -65 45 -46 47 -50 32 -67 -16 -18 -19 -17 -65 29 -26 26 -49 45 -51 42
-3 -2 -10 -15 -17 -28 -11 -21 -8 -27 24 -60 20 -20 36 -42 36 -48 0 -16 -74
-75 -130 -104 -37 -20 -60 -24 -130 -24 -75 0 -91 3 -138 29 -70 39 -127 102
-165 184 -29 60 -32 76 -32 162 0 109 16 162 76 254 35 52 39 65 39 120 l-1
61 -67 -70 c-109 -114 -167 -234 -178 -370 -15 -177 71 -357 218 -455 137 -91
307 -106 449 -39 41 20 97 57 125 82 29 26 56 47 60 47 5 0 25 -17 46 -37 35
-34 39 -36 63 -23 14 7 25 18 25 24 0 6 -19 30 -42 53 -40 41 -41 44 -25 60
16 16 20 15 65 -30 52 -51 59 -54 88 -33 18 14 17 17 -36 70 -51 53 -53 57
-37 73 16 16 20 14 76 -41 59 -59 60 -59 85 -42 14 9 26 20 26 24 0 4 -27 34
-60 67 -56 56 -59 60 -43 77 16 18 20 16 85 -49 65 -64 68 -66 93 -53 14 7 25
16 25 19 0 4 -29 36 -65 71 -36 35 -65 70 -65 76 0 6 7 17 16 25 13 11 26 2
90 -63 l76 -75 102 68 c57 37 110 78 119 92 15 24 14 25 -74 113 l-89 89 -68
-68 -68 -67 -59 60 -59 60 67 68 67 67 -88 88 -87 87 -28 -23z"/>
</g>
</svg>
